<svg xmlns="http://www.w3.org/2000/svg" xmlns:xlink="http://www.w3.org/1999/xlink" width="192" zoomAndPan="magnify" viewBox="0 0 144 143.999998" height="192" preserveAspectRatio="xMidYMid meet" version="1.0"><defs><clipPath id="ca1ffcf940"><path d="M 33 26.011719 L 111 26.011719 L 111 118.261719 L 33 118.261719 Z M 33 26.011719 " clip-rule="nonzero"/></clipPath></defs><g clip-path="url(#ca1ffcf940)"><path fill="#660066" d="M 71.90625 26.152344 C 69.984375 26.15625 68.078125 26.300781 66.179688 26.585938 C 64.28125 26.875 62.414062 27.300781 60.582031 27.867188 C 58.75 28.4375 56.96875 29.136719 55.238281 29.972656 C 53.507812 30.804688 51.851562 31.761719 50.265625 32.847656 C 48.683594 33.929688 47.1875 35.121094 45.78125 36.429688 C 44.375 37.734375 43.074219 39.140625 41.878906 40.640625 C 40.679688 42.144531 39.605469 43.726562 38.644531 45.386719 C 37.6875 47.050781 36.859375 48.777344 36.15625 50.5625 C 35.457031 52.351562 34.894531 54.179688 34.46875 56.050781 C 34.042969 57.921875 33.757812 59.816406 33.617188 61.730469 C 33.472656 63.644531 33.472656 65.558594 33.617188 67.472656 C 33.761719 69.386719 34.050781 71.28125 34.476562 73.152344 C 34.90625 75.023438 35.46875 76.851562 36.171875 78.636719 C 36.875 80.421875 37.707031 82.148438 38.667969 83.808594 C 39.625 85.472656 40.707031 87.050781 41.902344 88.550781 C 43.101562 90.054688 44.402344 91.457031 45.8125 92.761719 L 70.589844 117.558594 C 70.960938 117.898438 71.398438 118.074219 71.902344 118.082031 C 72.429688 118.074219 72.898438 117.898438 73.304688 117.558594 L 97.695312 93.070312 C 99.128906 91.777344 100.460938 90.382812 101.683594 88.890625 C 102.910156 87.394531 104.015625 85.816406 105 84.15625 C 105.988281 82.496094 106.84375 80.769531 107.570312 78.980469 C 108.296875 77.191406 108.886719 75.355469 109.335938 73.476562 C 109.785156 71.597656 110.089844 69.699219 110.253906 67.773438 C 110.414062 65.847656 110.429688 63.921875 110.304688 61.992188 C 110.175781 60.066406 109.902344 58.160156 109.484375 56.273438 C 109.070312 54.386719 108.515625 52.542969 107.820312 50.738281 C 107.125 48.9375 106.300781 47.195312 105.339844 45.519531 C 104.382812 43.839844 103.304688 42.246094 102.109375 40.730469 C 100.910156 39.214844 99.605469 37.796875 98.191406 36.480469 C 96.78125 35.160156 95.277344 33.957031 93.683594 32.867188 C 92.089844 31.773438 90.421875 30.808594 88.683594 29.96875 C 86.941406 29.128906 85.148438 28.425781 83.304688 27.855469 C 81.457031 27.289062 79.578125 26.859375 77.667969 26.574219 C 75.757812 26.289062 73.835938 26.148438 71.90625 26.152344 Z M 63.097656 88.445312 C 62.769531 88.441406 62.445312 88.40625 62.125 88.335938 C 61.800781 88.269531 61.492188 88.167969 61.1875 88.039062 C 60.886719 87.910156 60.601562 87.753906 60.328125 87.566406 C 60.058594 87.382812 59.808594 87.171875 59.578125 86.9375 C 59.347656 86.699219 59.144531 86.445312 58.964844 86.171875 C 58.785156 85.894531 58.632812 85.605469 58.511719 85.300781 C 58.386719 84.996094 58.296875 84.683594 58.234375 84.359375 C 58.175781 84.035156 58.144531 83.710938 58.148438 83.382812 C 58.152344 83.054688 58.1875 82.726562 58.253906 82.40625 C 58.320312 82.085938 58.417969 81.773438 58.546875 81.46875 C 58.675781 81.167969 58.832031 80.878906 59.015625 80.609375 C 59.199219 80.335938 59.410156 80.085938 59.644531 79.855469 C 59.878906 79.625 60.132812 79.417969 60.40625 79.238281 C 60.679688 79.058594 60.96875 78.90625 61.273438 78.78125 C 61.578125 78.65625 61.890625 78.5625 62.214844 78.5 C 62.539062 78.4375 62.863281 78.410156 63.191406 78.410156 C 63.519531 78.414062 63.84375 78.445312 64.167969 78.511719 C 64.488281 78.578125 64.800781 78.671875 65.105469 78.800781 C 65.40625 78.925781 65.695312 79.082031 65.96875 79.265625 C 66.242188 79.449219 66.492188 79.65625 66.726562 79.890625 C 66.957031 80.125 67.164062 80.375 67.34375 80.652344 C 67.527344 80.925781 67.679688 81.210938 67.804688 81.515625 C 67.929688 81.820312 68.023438 82.132812 68.089844 82.457031 C 68.152344 82.777344 68.183594 83.105469 68.183594 83.433594 C 68.179688 83.765625 68.144531 84.089844 68.078125 84.417969 C 68.011719 84.742188 67.914062 85.054688 67.785156 85.359375 C 67.65625 85.667969 67.496094 85.957031 67.3125 86.230469 C 67.125 86.503906 66.914062 86.757812 66.679688 86.992188 C 66.441406 87.222656 66.183594 87.429688 65.910156 87.613281 C 65.632812 87.796875 65.339844 87.949219 65.03125 88.074219 C 64.726562 88.199219 64.410156 88.292969 64.082031 88.355469 C 63.757812 88.417969 63.429688 88.449219 63.097656 88.445312 Z M 80.292969 88.445312 C 79.964844 88.445312 79.636719 88.414062 79.3125 88.351562 C 78.988281 88.285156 78.675781 88.191406 78.371094 88.066406 C 78.066406 87.941406 77.777344 87.785156 77.503906 87.601562 C 77.230469 87.417969 76.976562 87.210938 76.742188 86.976562 C 76.507812 86.746094 76.300781 86.492188 76.117188 86.21875 C 75.933594 85.945312 75.78125 85.65625 75.652344 85.351562 C 75.527344 85.046875 75.433594 84.730469 75.367188 84.410156 C 75.304688 84.085938 75.269531 83.757812 75.269531 83.429688 C 75.269531 83.101562 75.300781 82.773438 75.367188 82.449219 C 75.429688 82.125 75.527344 81.8125 75.652344 81.507812 C 75.777344 81.203125 75.933594 80.914062 76.117188 80.640625 C 76.300781 80.367188 76.507812 80.113281 76.738281 79.878906 C 76.972656 79.648438 77.226562 79.4375 77.5 79.253906 C 77.773438 79.074219 78.0625 78.917969 78.367188 78.792969 C 78.671875 78.664062 78.988281 78.570312 79.3125 78.507812 C 79.632812 78.441406 79.960938 78.410156 80.289062 78.410156 C 80.621094 78.410156 80.945312 78.441406 81.269531 78.507812 C 81.59375 78.570312 81.90625 78.667969 82.210938 78.792969 C 82.515625 78.917969 82.804688 79.074219 83.078125 79.257812 C 83.351562 79.441406 83.605469 79.648438 83.839844 79.882812 C 84.070312 80.113281 84.28125 80.367188 84.460938 80.644531 C 84.644531 80.917969 84.800781 81.207031 84.925781 81.511719 C 85.050781 81.816406 85.148438 82.128906 85.210938 82.453125 C 85.273438 82.777344 85.308594 83.101562 85.304688 83.433594 C 85.304688 83.761719 85.269531 84.085938 85.207031 84.40625 C 85.140625 84.730469 85.042969 85.042969 84.917969 85.34375 C 84.789062 85.648438 84.636719 85.9375 84.453125 86.210938 C 84.269531 86.480469 84.0625 86.734375 83.832031 86.96875 C 83.597656 87.199219 83.347656 87.40625 83.074219 87.589844 C 82.800781 87.773438 82.511719 87.929688 82.210938 88.054688 C 81.90625 88.183594 81.59375 88.277344 81.273438 88.34375 C 80.949219 88.410156 80.625 88.445312 80.296875 88.445312 Z M 88.597656 58.59375 L 84.683594 73.261719 C 84.546875 73.738281 84.339844 74.183594 84.058594 74.597656 C 83.777344 75.007812 83.441406 75.367188 83.046875 75.667969 C 82.648438 75.972656 82.21875 76.207031 81.746094 76.367188 C 81.273438 76.53125 80.789062 76.617188 80.292969 76.621094 L 63.097656 76.621094 C 62.601562 76.625 62.117188 76.546875 61.644531 76.386719 C 61.175781 76.226562 60.742188 75.996094 60.347656 75.695312 C 59.953125 75.390625 59.617188 75.03125 59.34375 74.617188 C 59.070312 74.203125 58.871094 73.753906 58.746094 73.273438 L 54.730469 58.59375 C 54.738281 58.5625 54.738281 58.53125 54.730469 58.503906 L 52.976562 52.011719 L 50.300781 52.011719 C 50.050781 52 49.816406 51.941406 49.589844 51.839844 C 49.363281 51.734375 49.164062 51.59375 48.996094 51.414062 C 48.824219 51.234375 48.691406 51.03125 48.597656 50.800781 C 48.507812 50.570312 48.460938 50.332031 48.460938 50.085938 C 48.460938 49.835938 48.507812 49.597656 48.597656 49.367188 C 48.691406 49.136719 48.824219 48.933594 48.996094 48.753906 C 49.164062 48.574219 49.363281 48.433594 49.589844 48.328125 C 49.816406 48.226562 50.050781 48.167969 50.300781 48.15625 L 54.457031 48.15625 C 54.664062 48.148438 54.867188 48.175781 55.0625 48.238281 C 55.261719 48.300781 55.441406 48.398438 55.605469 48.523438 C 55.773438 48.648438 55.910156 48.796875 56.023438 48.972656 C 56.136719 49.144531 56.214844 49.332031 56.261719 49.535156 L 58.042969 56.210938 L 86.75 56.210938 C 87.046875 56.191406 87.328125 56.246094 87.59375 56.378906 C 87.859375 56.507812 88.074219 56.699219 88.238281 56.945312 C 88.4375 57.167969 88.570312 57.425781 88.636719 57.71875 C 88.703125 58.015625 88.691406 58.304688 88.605469 58.59375 Z M 88.597656 58.59375 " fill-opacity="1" fill-rule="nonzero"/></g></svg>