<svg xmlns="http://www.w3.org/2000/svg" xmlns:xlink="http://www.w3.org/1999/xlink" width="192" zoomAndPan="magnify" viewBox="0 0 144 143.999998" height="192" preserveAspectRatio="xMidYMid meet" version="1.0"><defs><g/><clipPath id="439ce330d4"><path d="M 13.359375 11.53125 L 129.609375 11.53125 L 129.609375 127.78125 L 13.359375 127.78125 Z M 13.359375 11.53125 " clip-rule="nonzero"/></clipPath><clipPath id="df5a4a20bd"><path d="M 33 14.398438 L 111 14.398438 L 111 106.648438 L 33 106.648438 Z M 33 14.398438 " clip-rule="nonzero"/></clipPath><clipPath id="53f7534224"><path d="M 102 57 L 119 57 L 119 79 L 102 79 Z M 102 57 " clip-rule="nonzero"/></clipPath><clipPath id="1e0bd90c99"><path d="M 100.9375 55.5 L 116.445312 52.746094 L 121.03125 78.59375 L 105.523438 81.34375 Z M 100.9375 55.5 " clip-rule="nonzero"/></clipPath><clipPath id="ad35f1740d"><path d="M 100.9375 55.5 L 116.445312 52.746094 L 121.03125 78.59375 L 105.523438 81.34375 Z M 100.9375 55.5 " clip-rule="nonzero"/></clipPath><clipPath id="362f269f2d"><path d="M 100 55 L 120 55 L 120 80 L 100 80 Z M 100 55 " clip-rule="nonzero"/></clipPath><clipPath id="f9056a5851"><path d="M 100.9375 55.5 L 116.445312 52.746094 L 121.03125 78.59375 L 105.523438 81.34375 Z M 100.9375 55.5 " clip-rule="nonzero"/></clipPath><clipPath id="793b594de4"><path d="M 100.9375 55.5 L 116.445312 52.746094 L 121.03125 78.59375 L 105.523438 81.34375 Z M 100.9375 55.5 " clip-rule="nonzero"/></clipPath><clipPath id="c8f5f061c0"><rect x="0" width="76" y="0" height="38"/></clipPath><clipPath id="2c9d89c18f"><rect x="0" width="80" y="0" height="45"/></clipPath></defs><g clip-path="url(#439ce330d4)"><path fill="#ffffff" d="M 71.480469 11.53125 C 73.382812 11.53125 75.28125 11.625 77.175781 11.8125 C 79.070312 11.996094 80.949219 12.277344 82.816406 12.648438 C 84.683594 13.019531 86.527344 13.480469 88.351562 14.035156 C 90.171875 14.585938 91.960938 15.226562 93.71875 15.957031 C 95.480469 16.683594 97.199219 17.496094 98.875 18.394531 C 100.554688 19.292969 102.1875 20.269531 103.769531 21.324219 C 105.351562 22.382812 106.878906 23.515625 108.347656 24.722656 C 109.820312 25.929688 111.230469 27.207031 112.574219 28.554688 C 113.921875 29.898438 115.199219 31.308594 116.40625 32.78125 C 117.613281 34.25 118.746094 35.777344 119.804688 37.359375 C 120.859375 38.945312 121.839844 40.574219 122.734375 42.253906 C 123.632812 43.933594 124.445312 45.652344 125.175781 47.410156 C 125.902344 49.167969 126.542969 50.957031 127.097656 52.78125 C 127.648438 54.601562 128.109375 56.445312 128.480469 58.3125 C 128.851562 60.179688 129.132812 62.058594 129.320312 63.953125 C 129.503906 65.847656 129.597656 67.746094 129.597656 69.652344 C 129.597656 71.554688 129.503906 73.453125 129.320312 75.347656 C 129.132812 77.242188 128.851562 79.121094 128.480469 80.988281 C 128.109375 82.855469 127.648438 84.699219 127.097656 86.523438 C 126.542969 88.34375 125.902344 90.132812 125.175781 91.890625 C 124.445312 93.648438 123.632812 95.367188 122.734375 97.046875 C 121.839844 98.726562 120.859375 100.355469 119.804688 101.941406 C 118.746094 103.523438 117.613281 105.050781 116.40625 106.519531 C 115.199219 107.992188 113.921875 109.402344 112.574219 110.746094 C 111.230469 112.09375 109.820312 113.371094 108.347656 114.578125 C 106.878906 115.785156 105.351562 116.917969 103.769531 117.976562 C 102.1875 119.03125 100.554688 120.007812 98.875 120.90625 C 97.199219 121.804688 95.480469 122.617188 93.71875 123.34375 C 91.960938 124.074219 90.171875 124.714844 88.351562 125.265625 C 86.527344 125.820312 84.683594 126.28125 82.816406 126.652344 C 80.949219 127.023438 79.070312 127.304688 77.175781 127.488281 C 75.28125 127.675781 73.382812 127.769531 71.480469 127.769531 C 69.574219 127.769531 67.675781 127.675781 65.78125 127.488281 C 63.886719 127.304688 62.007812 127.023438 60.140625 126.652344 C 58.273438 126.28125 56.429688 125.820312 54.609375 125.265625 C 52.785156 124.714844 50.996094 124.074219 49.238281 123.34375 C 47.480469 122.617188 45.761719 121.804688 44.082031 120.90625 C 42.402344 120.007812 40.773438 119.03125 39.191406 117.976562 C 37.605469 116.917969 36.082031 115.785156 34.609375 114.578125 C 33.136719 113.371094 31.730469 112.09375 30.382812 110.746094 C 29.035156 109.402344 27.761719 107.992188 26.550781 106.519531 C 25.34375 105.050781 24.210938 103.523438 23.15625 101.941406 C 22.097656 100.355469 21.121094 98.726562 20.222656 97.046875 C 19.324219 95.367188 18.511719 93.648438 17.785156 91.890625 C 17.054688 90.132812 16.414062 88.34375 15.863281 86.523438 C 15.308594 84.699219 14.847656 82.855469 14.476562 80.988281 C 14.105469 79.121094 13.828125 77.242188 13.640625 75.347656 C 13.453125 73.453125 13.359375 71.554688 13.359375 69.652344 C 13.359375 67.746094 13.453125 65.847656 13.640625 63.953125 C 13.828125 62.058594 14.105469 60.179688 14.476562 58.3125 C 14.847656 56.445312 15.308594 54.601562 15.863281 52.78125 C 16.414062 50.957031 17.054688 49.167969 17.785156 47.410156 C 18.511719 45.652344 19.324219 43.933594 20.222656 42.253906 C 21.121094 40.574219 22.097656 38.945312 23.15625 37.359375 C 24.210938 35.777344 25.34375 34.25 26.550781 32.78125 C 27.761719 31.308594 29.035156 29.898438 30.382812 28.554688 C 31.730469 27.207031 33.136719 25.929688 34.609375 24.722656 C 36.082031 23.515625 37.605469 22.382812 39.191406 21.324219 C 40.773438 20.269531 42.402344 19.292969 44.082031 18.394531 C 45.761719 17.496094 47.480469 16.683594 49.238281 15.957031 C 50.996094 15.226562 52.785156 14.585938 54.609375 14.035156 C 56.429688 13.480469 58.273438 13.019531 60.140625 12.648438 C 62.007812 12.277344 63.886719 11.996094 65.78125 11.8125 C 67.675781 11.625 69.574219 11.53125 71.480469 11.53125 Z M 71.480469 11.53125 " fill-opacity="1" fill-rule="evenodd"/></g><g clip-path="url(#df5a4a20bd)"><path fill="#ffc72c" d="M 71.90625 14.539062 C 69.984375 14.542969 68.078125 14.6875 66.179688 14.972656 C 64.28125 15.261719 62.414062 15.6875 60.582031 16.257812 C 58.75 16.824219 56.96875 17.523438 55.238281 18.359375 C 53.507812 19.191406 51.851562 20.148438 50.265625 21.234375 C 48.683594 22.316406 47.1875 23.507812 45.78125 24.816406 C 44.375 26.121094 43.074219 27.527344 41.878906 29.027344 C 40.679688 30.53125 39.605469 32.113281 38.644531 33.773438 C 37.6875 35.4375 36.859375 37.164062 36.15625 38.949219 C 35.457031 40.738281 34.894531 42.566406 34.46875 44.4375 C 34.042969 46.308594 33.757812 48.203125 33.617188 50.117188 C 33.472656 52.03125 33.472656 53.945312 33.617188 55.859375 C 33.761719 57.773438 34.050781 59.667969 34.476562 61.539062 C 34.90625 63.410156 35.46875 65.238281 36.171875 67.023438 C 36.875 68.808594 37.707031 70.535156 38.667969 72.195312 C 39.625 73.859375 40.707031 75.4375 41.902344 76.9375 C 43.101562 78.441406 44.402344 79.84375 45.8125 81.148438 L 70.589844 105.945312 C 70.960938 106.285156 71.398438 106.460938 71.902344 106.46875 C 72.429688 106.460938 72.898438 106.285156 73.304688 105.945312 L 97.695312 81.457031 C 99.128906 80.164062 100.460938 78.769531 101.683594 77.277344 C 102.910156 75.78125 104.015625 74.203125 105 72.542969 C 105.988281 70.882812 106.84375 69.15625 107.570312 67.367188 C 108.296875 65.578125 108.886719 63.742188 109.335938 61.863281 C 109.785156 59.984375 110.089844 58.085938 110.253906 56.160156 C 110.414062 54.234375 110.429688 52.308594 110.304688 50.378906 C 110.175781 48.453125 109.902344 46.546875 109.484375 44.660156 C 109.070312 42.773438 108.515625 40.929688 107.820312 39.125 C 107.125 37.324219 106.300781 35.582031 105.339844 33.90625 C 104.382812 32.226562 103.304688 30.632812 102.109375 29.117188 C 100.910156 27.601562 99.605469 26.183594 98.191406 24.867188 C 96.78125 23.546875 95.277344 22.34375 93.683594 21.253906 C 92.089844 20.160156 90.421875 19.195312 88.683594 18.355469 C 86.941406 17.515625 85.148438 16.8125 83.304688 16.242188 C 81.457031 15.675781 79.578125 15.246094 77.667969 14.960938 C 75.757812 14.675781 73.835938 14.535156 71.90625 14.539062 Z M 63.097656 76.832031 C 62.769531 76.828125 62.445312 76.792969 62.125 76.722656 C 61.800781 76.65625 61.492188 76.554688 61.1875 76.425781 C 60.886719 76.296875 60.601562 76.140625 60.328125 75.953125 C 60.058594 75.769531 59.808594 75.558594 59.578125 75.324219 C 59.347656 75.089844 59.144531 74.832031 58.964844 74.558594 C 58.785156 74.28125 58.632812 73.992188 58.511719 73.6875 C 58.386719 73.382812 58.296875 73.070312 58.234375 72.746094 C 58.175781 72.421875 58.144531 72.097656 58.148438 71.769531 C 58.152344 71.441406 58.1875 71.113281 58.253906 70.792969 C 58.320312 70.472656 58.417969 70.160156 58.546875 69.855469 C 58.675781 69.554688 58.832031 69.265625 59.015625 68.996094 C 59.199219 68.722656 59.410156 68.472656 59.644531 68.242188 C 59.878906 68.011719 60.132812 67.804688 60.40625 67.625 C 60.679688 67.445312 60.96875 67.292969 61.273438 67.167969 C 61.578125 67.042969 61.890625 66.949219 62.214844 66.886719 C 62.539062 66.824219 62.863281 66.796875 63.191406 66.796875 C 63.519531 66.800781 63.84375 66.832031 64.167969 66.898438 C 64.488281 66.964844 64.800781 67.058594 65.105469 67.1875 C 65.40625 67.3125 65.695312 67.46875 65.96875 67.652344 C 66.242188 67.835938 66.492188 68.042969 66.726562 68.277344 C 66.957031 68.511719 67.164062 68.761719 67.34375 69.039062 C 67.527344 69.3125 67.679688 69.597656 67.804688 69.902344 C 67.929688 70.207031 68.023438 70.519531 68.089844 70.84375 C 68.152344 71.164062 68.183594 71.492188 68.183594 71.820312 C 68.179688 72.152344 68.144531 72.476562 68.078125 72.804688 C 68.011719 73.128906 67.914062 73.441406 67.785156 73.746094 C 67.65625 74.054688 67.496094 74.34375 67.3125 74.617188 C 67.125 74.890625 66.914062 75.144531 66.679688 75.378906 C 66.441406 75.609375 66.183594 75.816406 65.910156 76 C 65.632812 76.183594 65.339844 76.335938 65.03125 76.460938 C 64.726562 76.585938 64.410156 76.679688 64.082031 76.742188 C 63.757812 76.804688 63.429688 76.835938 63.097656 76.832031 Z M 80.292969 76.832031 C 79.964844 76.832031 79.636719 76.800781 79.3125 76.738281 C 78.988281 76.671875 78.675781 76.578125 78.371094 76.453125 C 78.066406 76.328125 77.777344 76.171875 77.503906 75.988281 C 77.230469 75.804688 76.976562 75.597656 76.742188 75.363281 C 76.507812 75.132812 76.300781 74.878906 76.117188 74.605469 C 75.933594 74.332031 75.78125 74.042969 75.652344 73.738281 C 75.527344 73.433594 75.433594 73.117188 75.367188 72.796875 C 75.304688 72.472656 75.269531 72.144531 75.269531 71.816406 C 75.269531 71.488281 75.300781 71.160156 75.367188 70.835938 C 75.429688 70.511719 75.527344 70.199219 75.652344 69.894531 C 75.777344 69.589844 75.933594 69.300781 76.117188 69.027344 C 76.300781 68.753906 76.507812 68.5 76.738281 68.265625 C 76.972656 68.035156 77.226562 67.824219 77.5 67.640625 C 77.773438 67.460938 78.0625 67.304688 78.367188 67.179688 C 78.671875 67.050781 78.988281 66.957031 79.3125 66.894531 C 79.632812 66.828125 79.960938 66.796875 80.289062 66.796875 C 80.621094 66.796875 80.945312 66.828125 81.269531 66.894531 C 81.59375 66.957031 81.90625 67.054688 82.210938 67.179688 C 82.515625 67.304688 82.804688 67.460938 83.078125 67.644531 C 83.351562 67.828125 83.605469 68.035156 83.839844 68.269531 C 84.070312 68.5 84.28125 68.753906 84.460938 69.03125 C 84.644531 69.304688 84.800781 69.59375 84.925781 69.898438 C 85.050781 70.203125 85.148438 70.515625 85.210938 70.839844 C 85.273438 71.164062 85.308594 71.488281 85.304688 71.820312 C 85.304688 72.148438 85.269531 72.472656 85.207031 72.792969 C 85.140625 73.117188 85.042969 73.429688 84.917969 73.730469 C 84.789062 74.035156 84.636719 74.324219 84.453125 74.597656 C 84.269531 74.871094 84.0625 75.121094 83.832031 75.355469 C 83.597656 75.585938 83.347656 75.792969 83.074219 75.976562 C 82.800781 76.160156 82.511719 76.316406 82.210938 76.441406 C 81.90625 76.570312 81.59375 76.664062 81.273438 76.730469 C 80.949219 76.796875 80.625 76.832031 80.296875 76.832031 Z M 88.597656 46.980469 L 84.683594 61.648438 C 84.546875 62.125 84.339844 62.570312 84.058594 62.984375 C 83.777344 63.394531 83.441406 63.753906 83.046875 64.054688 C 82.648438 64.359375 82.21875 64.59375 81.746094 64.753906 C 81.273438 64.917969 80.789062 65.003906 80.292969 65.007812 L 63.097656 65.007812 C 62.601562 65.011719 62.117188 64.933594 61.644531 64.773438 C 61.175781 64.617188 60.742188 64.382812 60.347656 64.082031 C 59.953125 63.777344 59.617188 63.417969 59.34375 63.003906 C 59.070312 62.589844 58.871094 62.140625 58.746094 61.660156 L 54.730469 46.980469 C 54.738281 46.949219 54.738281 46.917969 54.730469 46.890625 L 52.976562 40.398438 L 50.300781 40.398438 C 50.050781 40.386719 49.816406 40.328125 49.589844 40.226562 C 49.363281 40.121094 49.164062 39.980469 48.996094 39.800781 C 48.824219 39.621094 48.691406 39.417969 48.597656 39.1875 C 48.507812 38.957031 48.460938 38.71875 48.460938 38.472656 C 48.460938 38.222656 48.507812 37.984375 48.597656 37.753906 C 48.691406 37.523438 48.824219 37.320312 48.996094 37.140625 C 49.164062 36.960938 49.363281 36.820312 49.589844 36.714844 C 49.816406 36.613281 50.050781 36.554688 50.300781 36.542969 L 54.457031 36.542969 C 54.664062 36.535156 54.867188 36.5625 55.0625 36.625 C 55.261719 36.6875 55.441406 36.785156 55.605469 36.910156 C 55.773438 37.035156 55.910156 37.183594 56.023438 37.359375 C 56.136719 37.53125 56.214844 37.71875 56.261719 37.921875 L 58.042969 44.597656 L 86.75 44.597656 C 87.046875 44.578125 87.328125 44.632812 87.59375 44.765625 C 87.859375 44.894531 88.074219 45.085938 88.238281 45.332031 C 88.4375 45.554688 88.570312 45.8125 88.636719 46.105469 C 88.703125 46.402344 88.691406 46.691406 88.605469 46.980469 Z M 88.597656 46.980469 " fill-opacity="1" fill-rule="nonzero"/></g><g clip-path="url(#53f7534224)"><g clip-path="url(#1e0bd90c99)"><g clip-path="url(#ad35f1740d)"><path fill="#ffffff" d="M 113.476562 72.925781 L 114.785156 72.695312 L 115.28125 75.480469 L 116.589844 75.25 L 117.050781 77.84375 L 114.4375 78.308594 L 113.980469 75.714844 L 112.671875 75.945312 L 112.207031 73.328125 L 110.898438 73.5625 L 110.664062 72.253906 L 109.355469 72.484375 L 109.589844 73.792969 L 108.28125 74.023438 L 108.511719 75.332031 L 107.203125 75.566406 L 107.4375 76.875 L 106.121094 77.105469 L 102.726562 57.980469 L 104.035156 57.746094 L 104.269531 59.054688 L 105.578125 58.824219 L 105.808594 60.132812 L 107.117188 59.898438 L 107.351562 61.207031 L 108.65625 60.976562 L 108.890625 62.285156 L 110.199219 62.050781 L 110.429688 63.359375 L 111.738281 63.128906 L 111.972656 64.4375 L 113.28125 64.203125 L 113.511719 65.511719 L 114.820312 65.28125 L 115.050781 66.589844 L 116.359375 66.355469 L 116.59375 67.664062 L 117.902344 67.433594 L 118.246094 69.378906 L 113.011719 70.308594 Z M 113.476562 72.925781 " fill-opacity="1" fill-rule="nonzero"/></g></g></g><g clip-path="url(#362f269f2d)"><g clip-path="url(#f9056a5851)"><g clip-path="url(#793b594de4)"><path fill="#660066" d="M 104.269531 59.054688 L 104.035156 57.746094 L 105.347656 57.515625 L 105.578125 58.824219 Z M 107.117188 59.898438 L 106.886719 58.589844 L 105.578125 58.824219 L 105.808594 60.132812 Z M 108.660156 60.976562 L 108.429688 59.667969 L 107.117188 59.898438 L 107.351562 61.207031 Z M 110.203125 62.054688 L 109.96875 60.746094 L 108.660156 60.976562 L 108.890625 62.285156 Z M 111.742188 63.128906 L 111.511719 61.820312 L 110.203125 62.054688 L 110.433594 63.363281 Z M 113.285156 64.207031 L 113.050781 62.898438 L 111.742188 63.128906 L 111.972656 64.4375 Z M 117.054688 77.84375 L 114.4375 78.308594 L 113.980469 75.714844 L 112.667969 75.945312 L 113.132812 78.554688 L 114.4375 78.324219 L 114.664062 79.617188 L 117.28125 79.152344 L 117.054688 77.867188 L 118.363281 77.636719 L 117.898438 75.015625 L 116.589844 75.25 L 117.050781 77.84375 Z M 112.207031 73.328125 L 110.898438 73.5625 L 111.363281 76.179688 L 112.671875 75.945312 Z M 109.355469 72.484375 L 109.589844 73.792969 L 110.898438 73.5625 L 110.664062 72.25 Z M 108.511719 75.332031 L 109.820312 75.101562 L 109.589844 73.792969 L 108.28125 74.023438 Z M 107.4375 76.875 L 108.746094 76.644531 L 108.511719 75.332031 L 107.203125 75.566406 Z M 116.589844 75.25 L 116.09375 72.460938 L 114.785156 72.695312 L 115.28125 75.480469 Z M 114.820312 65.28125 L 114.585938 63.972656 L 113.277344 64.207031 L 113.511719 65.515625 Z M 116.359375 66.359375 L 116.128906 65.050781 L 114.820312 65.28125 L 115.050781 66.589844 Z M 117.902344 67.433594 L 117.667969 66.125 L 116.359375 66.359375 L 116.59375 67.667969 Z M 117.902344 67.433594 L 118.246094 69.382812 L 113.015625 70.308594 L 113.476562 72.925781 L 114.785156 72.695312 L 114.554688 71.386719 L 119.789062 70.457031 L 119.210938 67.203125 Z M 102.726562 57.980469 L 104.035156 57.746094 L 103.804688 56.4375 L 102.496094 56.671875 L 102.246094 55.265625 L 100.9375 55.5 L 105.046875 78.648438 L 107.667969 78.183594 L 107.4375 76.875 L 106.121094 77.105469 Z M 102.726562 57.980469 " fill-opacity="1" fill-rule="nonzero"/></g></g></g><g transform="matrix(1, 0, 0, 1, 34, 66)"><g clip-path="url(#c8f5f061c0)"><g fill="#ef8121" fill-opacity="0.4"><g transform="translate(4.228199, 16.954804)"><g><path d="M 5.109375 4.40625 C 4.160156 3.65625 3.332031 2.8125 2.625 1.875 C 1.914062 0.9375 1.4375 0.0507812 1.1875 -0.78125 L 4.21875 -2.375 C 4.457031 -1.601562 4.835938 -0.835938 5.359375 -0.078125 C 5.890625 0.671875 6.488281 1.3125 7.15625 1.84375 C 8.4375 2.84375 9.328125 3.023438 9.828125 2.390625 C 10.097656 2.046875 10.113281 1.648438 9.875 1.203125 C 9.644531 0.753906 9.195312 0.128906 8.53125 -0.671875 C 7.789062 -1.554688 7.207031 -2.34375 6.78125 -3.03125 C 6.363281 -3.71875 6.128906 -4.46875 6.078125 -5.28125 C 6.035156 -6.101562 6.335938 -6.921875 6.984375 -7.734375 C 7.546875 -8.453125 8.25 -8.941406 9.09375 -9.203125 C 9.945312 -9.472656 10.894531 -9.46875 11.9375 -9.1875 C 12.976562 -8.914062 14.0625 -8.335938 15.1875 -7.453125 C 15.957031 -6.847656 16.648438 -6.160156 17.265625 -5.390625 C 17.878906 -4.628906 18.335938 -3.859375 18.640625 -3.078125 L 15.6875 -1.421875 C 15.039062 -2.898438 14.195312 -4.050781 13.15625 -4.875 C 12.488281 -5.40625 11.925781 -5.6875 11.46875 -5.71875 C 11.007812 -5.757812 10.65625 -5.617188 10.40625 -5.296875 C 10.164062 -4.992188 10.160156 -4.625 10.390625 -4.1875 C 10.628906 -3.75 11.078125 -3.128906 11.734375 -2.328125 C 12.484375 -1.429688 13.0625 -0.648438 13.46875 0.015625 C 13.882812 0.691406 14.125 1.441406 14.1875 2.265625 C 14.25 3.085938 13.957031 3.90625 13.3125 4.71875 C 12.757812 5.425781 12.0625 5.910156 11.21875 6.171875 C 10.375 6.429688 9.425781 6.421875 8.375 6.140625 C 7.320312 5.867188 6.234375 5.289062 5.109375 4.40625 Z M 5.109375 4.40625 "/></g></g></g><g fill="#ef8121" fill-opacity="0.4"><g transform="translate(17.858791, 27.274941)"><g><path d="M 19.046875 -10.375 L 15.1875 4.0625 L 11.09375 2.96875 L 12.59375 -2.65625 L 7.03125 -4.140625 L 5.53125 1.484375 L 1.453125 0.390625 L 5.3125 -14.046875 L 9.390625 -12.953125 L 7.9375 -7.53125 L 13.5 -6.046875 L 14.953125 -11.46875 Z M 19.046875 -10.375 "/></g></g></g><g fill="#ef8121" fill-opacity="0.4"><g transform="translate(38.268274, 31.935735)"><g><path d="M 8.90625 -1.5 C 7.363281 -1.1875 5.90625 -1.234375 4.53125 -1.640625 C 3.164062 -2.046875 2.007812 -2.753906 1.0625 -3.765625 C 0.125 -4.773438 -0.488281 -6.003906 -0.78125 -7.453125 C -1.070312 -8.921875 -0.976562 -10.304688 -0.5 -11.609375 C -0.03125 -12.910156 0.75 -14.015625 1.84375 -14.921875 C 2.945312 -15.828125 4.269531 -16.4375 5.8125 -16.75 C 7.363281 -17.0625 8.828125 -17.015625 10.203125 -16.609375 C 11.578125 -16.203125 12.734375 -15.488281 13.671875 -14.46875 C 14.609375 -13.457031 15.222656 -12.21875 15.515625 -10.75 C 15.804688 -9.300781 15.71875 -7.925781 15.25 -6.625 C 14.78125 -5.332031 13.992188 -4.234375 12.890625 -3.328125 C 11.785156 -2.421875 10.457031 -1.8125 8.90625 -1.5 Z M 8.203125 -4.9375 C 8.953125 -5.082031 9.59375 -5.390625 10.125 -5.859375 C 10.65625 -6.335938 11.03125 -6.925781 11.25 -7.625 C 11.46875 -8.332031 11.492188 -9.09375 11.328125 -9.90625 C 11.160156 -10.738281 10.835938 -11.4375 10.359375 -12 C 9.878906 -12.570312 9.304688 -12.96875 8.640625 -13.1875 C 7.972656 -13.414062 7.265625 -13.457031 6.515625 -13.3125 C 5.785156 -13.15625 5.148438 -12.84375 4.609375 -12.375 C 4.078125 -11.90625 3.703125 -11.316406 3.484375 -10.609375 C 3.273438 -9.910156 3.253906 -9.144531 3.421875 -8.3125 C 3.585938 -7.5 3.90625 -6.804688 4.375 -6.234375 C 4.851562 -5.671875 5.425781 -5.273438 6.09375 -5.046875 C 6.769531 -4.816406 7.472656 -4.78125 8.203125 -4.9375 Z M 8.203125 -4.9375 "/></g></g></g><g fill="#ef8121" fill-opacity="0.4"><g transform="translate(59.16209, 26.641667)"><g><path d="M -2.28125 -16.96875 C -1.195312 -17.78125 -0.125 -18.300781 0.9375 -18.53125 C 2.007812 -18.769531 3.007812 -18.71875 3.9375 -18.375 C 4.863281 -18.03125 5.664062 -17.410156 6.34375 -16.515625 C 7.019531 -15.609375 7.390625 -14.660156 7.453125 -13.671875 C 7.515625 -12.679688 7.28125 -11.707031 6.75 -10.75 C 6.21875 -9.800781 5.410156 -8.921875 4.328125 -8.109375 L 2.234375 -6.546875 L 4.578125 -3.421875 L 1.203125 -0.890625 L -7.75 -12.875 Z M 2.140625 -10.640625 C 2.835938 -11.148438 3.25 -11.6875 3.375 -12.25 C 3.5 -12.820312 3.351562 -13.390625 2.9375 -13.953125 C 2.519531 -14.515625 2.019531 -14.816406 1.4375 -14.859375 C 0.851562 -14.898438 0.210938 -14.664062 -0.484375 -14.15625 L -2.375 -12.734375 L 0.25 -9.21875 Z M 2.140625 -10.640625 "/></g></g></g><g fill="#660066" fill-opacity="1"><g transform="translate(4.228199, 16.954804)"><g><path d="M 5.109375 4.40625 C 4.160156 3.65625 3.332031 2.8125 2.625 1.875 C 1.914062 0.9375 1.4375 0.0507812 1.1875 -0.78125 L 4.21875 -2.375 C 4.457031 -1.601562 4.835938 -0.835938 5.359375 -0.078125 C 5.890625 0.671875 6.488281 1.3125 7.15625 1.84375 C 8.4375 2.84375 9.328125 3.023438 9.828125 2.390625 C 10.097656 2.046875 10.113281 1.648438 9.875 1.203125 C 9.644531 0.753906 9.195312 0.128906 8.53125 -0.671875 C 7.789062 -1.554688 7.207031 -2.34375 6.78125 -3.03125 C 6.363281 -3.71875 6.128906 -4.46875 6.078125 -5.28125 C 6.035156 -6.101562 6.335938 -6.921875 6.984375 -7.734375 C 7.546875 -8.453125 8.25 -8.941406 9.09375 -9.203125 C 9.945312 -9.472656 10.894531 -9.46875 11.9375 -9.1875 C 12.976562 -8.914062 14.0625 -8.335938 15.1875 -7.453125 C 15.957031 -6.847656 16.648438 -6.160156 17.265625 -5.390625 C 17.878906 -4.628906 18.335938 -3.859375 18.640625 -3.078125 L 15.6875 -1.421875 C 15.039062 -2.898438 14.195312 -4.050781 13.15625 -4.875 C 12.488281 -5.40625 11.925781 -5.6875 11.46875 -5.71875 C 11.007812 -5.757812 10.65625 -5.617188 10.40625 -5.296875 C 10.164062 -4.992188 10.160156 -4.625 10.390625 -4.1875 C 10.628906 -3.75 11.078125 -3.128906 11.734375 -2.328125 C 12.484375 -1.429688 13.0625 -0.648438 13.46875 0.015625 C 13.882812 0.691406 14.125 1.441406 14.1875 2.265625 C 14.25 3.085938 13.957031 3.90625 13.3125 4.71875 C 12.757812 5.425781 12.0625 5.910156 11.21875 6.171875 C 10.375 6.429688 9.425781 6.421875 8.375 6.140625 C 7.320312 5.867188 6.234375 5.289062 5.109375 4.40625 Z M 5.109375 4.40625 "/></g></g></g><g fill="#660066" fill-opacity="1"><g transform="translate(17.858791, 27.274941)"><g><path d="M 19.046875 -10.375 L 15.1875 4.0625 L 11.09375 2.96875 L 12.59375 -2.65625 L 7.03125 -4.140625 L 5.53125 1.484375 L 1.453125 0.390625 L 5.3125 -14.046875 L 9.390625 -12.953125 L 7.9375 -7.53125 L 13.5 -6.046875 L 14.953125 -11.46875 Z M 19.046875 -10.375 "/></g></g></g><g fill="#660066" fill-opacity="1"><g transform="translate(38.268274, 31.935735)"><g><path d="M 8.90625 -1.5 C 7.363281 -1.1875 5.90625 -1.234375 4.53125 -1.640625 C 3.164062 -2.046875 2.007812 -2.753906 1.0625 -3.765625 C 0.125 -4.773438 -0.488281 -6.003906 -0.78125 -7.453125 C -1.070312 -8.921875 -0.976562 -10.304688 -0.5 -11.609375 C -0.03125 -12.910156 0.75 -14.015625 1.84375 -14.921875 C 2.945312 -15.828125 4.269531 -16.4375 5.8125 -16.75 C 7.363281 -17.0625 8.828125 -17.015625 10.203125 -16.609375 C 11.578125 -16.203125 12.734375 -15.488281 13.671875 -14.46875 C 14.609375 -13.457031 15.222656 -12.21875 15.515625 -10.75 C 15.804688 -9.300781 15.71875 -7.925781 15.25 -6.625 C 14.78125 -5.332031 13.992188 -4.234375 12.890625 -3.328125 C 11.785156 -2.421875 10.457031 -1.8125 8.90625 -1.5 Z M 8.203125 -4.9375 C 8.953125 -5.082031 9.59375 -5.390625 10.125 -5.859375 C 10.65625 -6.335938 11.03125 -6.925781 11.25 -7.625 C 11.46875 -8.332031 11.492188 -9.09375 11.328125 -9.90625 C 11.160156 -10.738281 10.835938 -11.4375 10.359375 -12 C 9.878906 -12.570312 9.304688 -12.96875 8.640625 -13.1875 C 7.972656 -13.414062 7.265625 -13.457031 6.515625 -13.3125 C 5.785156 -13.15625 5.148438 -12.84375 4.609375 -12.375 C 4.078125 -11.90625 3.703125 -11.316406 3.484375 -10.609375 C 3.273438 -9.910156 3.253906 -9.144531 3.421875 -8.3125 C 3.585938 -7.5 3.90625 -6.804688 4.375 -6.234375 C 4.851562 -5.671875 5.425781 -5.273438 6.09375 -5.046875 C 6.769531 -4.816406 7.472656 -4.78125 8.203125 -4.9375 Z M 8.203125 -4.9375 "/></g></g></g><g fill="#660066" fill-opacity="1"><g transform="translate(59.16209, 26.641667)"><g><path d="M -2.28125 -16.96875 C -1.195312 -17.78125 -0.125 -18.300781 0.9375 -18.53125 C 2.007812 -18.769531 3.007812 -18.71875 3.9375 -18.375 C 4.863281 -18.03125 5.664062 -17.410156 6.34375 -16.515625 C 7.019531 -15.609375 7.390625 -14.660156 7.453125 -13.671875 C 7.515625 -12.679688 7.28125 -11.707031 6.75 -10.75 C 6.21875 -9.800781 5.410156 -8.921875 4.328125 -8.109375 L 2.234375 -6.546875 L 4.578125 -3.421875 L 1.203125 -0.890625 L -7.75 -12.875 Z M 2.140625 -10.640625 C 2.835938 -11.148438 3.25 -11.6875 3.375 -12.25 C 3.5 -12.820312 3.351562 -13.390625 2.9375 -13.953125 C 2.519531 -14.515625 2.019531 -14.816406 1.4375 -14.859375 C 0.851562 -14.898438 0.210938 -14.664062 -0.484375 -14.15625 L -2.375 -12.734375 L 0.25 -9.21875 Z M 2.140625 -10.640625 "/></g></g></g></g></g><g transform="matrix(1, 0, 0, 1, 32, 84)"><g clip-path="url(#2c9d89c18f)"><g fill="#660066" fill-opacity="1"><g transform="translate(3.915142, 26.252382)"><g><path d="M 27.828125 -9.765625 L 19.484375 8.765625 L 15.171875 6.828125 L 11.4375 -6.734375 L 7 3.140625 L 1.859375 0.828125 L 10.203125 -17.703125 L 14.515625 -15.75 L 18.234375 -2.203125 L 22.6875 -12.078125 Z M 27.828125 -9.765625 "/></g></g></g><g fill="#660066" fill-opacity="1"><g transform="translate(28.042934, 36.404512)"><g><path d="M 15.6875 -3.78125 L 7.09375 -3.875 L 5.453125 0.0625 L -0.40625 0 L 8.796875 -20.234375 L 14.453125 -20.171875 L 23.21875 0.265625 L 17.25 0.1875 Z M 14.0625 -8.03125 L 11.5 -14.5625 L 8.828125 -8.09375 Z M 14.0625 -8.03125 "/></g></g></g><g fill="#660066" fill-opacity="1"><g transform="translate(53.818827, 36.243639)"><g><path d="M 11.40625 -4.53125 C 9.445312 -3.675781 7.5 -3.320312 5.5625 -3.46875 C 3.625 -3.625 1.882812 -4.238281 0.34375 -5.3125 C -1.1875 -6.394531 -2.351562 -7.859375 -3.15625 -9.703125 C -3.96875 -11.554688 -4.242188 -13.410156 -3.984375 -15.265625 C -3.734375 -17.128906 -3.003906 -18.820312 -1.796875 -20.34375 C -0.585938 -21.863281 0.992188 -23.050781 2.953125 -23.90625 C 4.921875 -24.769531 6.875 -25.125 8.8125 -24.96875 C 10.75 -24.820312 12.484375 -24.210938 14.015625 -23.140625 C 15.554688 -22.066406 16.734375 -20.601562 17.546875 -18.75 C 18.347656 -16.90625 18.617188 -15.050781 18.359375 -13.1875 C 18.109375 -11.320312 17.378906 -9.628906 16.171875 -8.109375 C 14.960938 -6.585938 13.375 -5.394531 11.40625 -4.53125 Z M 9.5 -8.90625 C 10.4375 -9.320312 11.191406 -9.914062 11.765625 -10.6875 C 12.335938 -11.46875 12.671875 -12.359375 12.765625 -13.359375 C 12.859375 -14.359375 12.675781 -15.378906 12.21875 -16.421875 C 11.757812 -17.472656 11.128906 -18.300781 10.328125 -18.90625 C 9.535156 -19.519531 8.660156 -19.882812 7.703125 -20 C 6.742188 -20.113281 5.796875 -19.960938 4.859375 -19.546875 C 3.921875 -19.140625 3.164062 -18.546875 2.59375 -17.765625 C 2.03125 -16.984375 1.703125 -16.09375 1.609375 -15.09375 C 1.523438 -14.101562 1.710938 -13.082031 2.171875 -12.03125 C 2.628906 -10.988281 3.253906 -10.160156 4.046875 -9.546875 C 4.835938 -8.929688 5.707031 -8.566406 6.65625 -8.453125 C 7.613281 -8.347656 8.5625 -8.5 9.5 -8.90625 Z M 9.5 -8.90625 "/></g></g></g></g></g></svg>