<?xml version="1.0" encoding="UTF-8"?>
<svg version="1.1" xmlns="http://www.w3.org/2000/svg" width="512" height="512">
<path d="M0 0 C29.04 0 58.08 0 88 0 C88 2.64 88 5.28 88 8 C98.56 8 109.12 8 120 8 C120 10.64 120 13.28 120 16 C127.92 16 135.84 16 144 16 C144 18.64 144 21.28 144 24 C149.28 24 154.56 24 160 24 C160 26.64 160 29.28 160 32 C165.28 32 170.56 32 176 32 C176 34.64 176 37.28 176 40 C178.64 40 181.28 40 184 40 C184 42.64 184 45.28 184 48 C189.28 48 194.56 48 200 48 C200 50.64 200 53.28 200 56 C202.64 56 205.28 56 208 56 C208 58.64 208 61.28 208 64 C210.64 64 213.28 64 216 64 C216 66.64 216 69.28 216 72 C218.64 72 221.28 72 224 72 C224 74.64 224 77.28 224 80 C226.64 80 229.28 80 232 80 C232 82.64 232 85.28 232 88 C234.64 88 237.28 88 240 88 C240 90.64 240 93.28 240 96 C242.64 96 245.28 96 248 96 C248 98.64 248 101.28 248 104 C250.64 104 253.28 104 256 104 C256 109.28 256 114.56 256 120 C258.64 120 261.28 120 264 120 C264 122.64 264 125.28 264 128 C266.64 128 269.28 128 272 128 C272 133.28 272 138.56 272 144 C274.64 144 277.28 144 280 144 C280 149.28 280 154.56 280 160 C282.64 160 285.28 160 288 160 C288 167.92 288 175.84 288 184 C290.64 184 293.28 184 296 184 C296 234.16 296 284.32 296 336 C293.36 336 290.72 336 288 336 C288 343.92 288 351.84 288 360 C285.36 360 282.72 360 280 360 C280 365.28 280 370.56 280 376 C277.36 376 274.72 376 272 376 C272 381.28 272 386.56 272 392 C269.36 392 266.72 392 264 392 C264 394.64 264 397.28 264 400 C261.36 400 258.72 400 256 400 C256 405.28 256 410.56 256 416 C253.36 416 250.72 416 248 416 C248 418.64 248 421.28 248 424 C250.64 424 253.28 424 256 424 C256 426.64 256 429.28 256 432 C258.64 432 261.28 432 264 432 C264 442.56 264 453.12 264 464 C261.36 464 258.72 464 256 464 C256 466.64 256 469.28 256 472 C258.64 472 261.28 472 264 472 C264 474.64 264 477.28 264 480 C266.64 480 269.28 480 272 480 C272 490.56 272 501.12 272 512 C258.8 512 245.6 512 232 512 C232 509.36 232 506.72 232 504 C229.36 504 226.72 504 224 504 C224 498.72 224 493.44 224 488 C221.36 488 218.72 488 216 488 C216 490.64 216 493.28 216 496 C205.44 496 194.88 496 184 496 C184 490.72 184 485.44 184 480 C181.36 480 178.72 480 176 480 C176 482.64 176 485.28 176 488 C170.72 488 165.44 488 160 488 C160 490.64 160 493.28 160 496 C154.72 496 149.44 496 144 496 C144 498.64 144 501.28 144 504 C136.08 504 128.16 504 120 504 C120 506.64 120 509.28 120 512 C69.84 512 19.68 512 -32 512 C-32 509.36 -32 506.72 -32 504 C-39.92 504 -47.84 504 -56 504 C-56 501.36 -56 498.72 -56 496 C-61.28 496 -66.56 496 -72 496 C-72 493.36 -72 490.72 -72 488 C-77.28 488 -82.56 488 -88 488 C-88 485.36 -88 482.72 -88 480 C-90.64 480 -93.28 480 -96 480 C-96 477.36 -96 474.72 -96 472 C-101.28 472 -106.56 472 -112 472 C-112 469.36 -112 466.72 -112 464 C-114.64 464 -117.28 464 -120 464 C-120 461.36 -120 458.72 -120 456 C-122.64 456 -125.28 456 -128 456 C-128 453.36 -128 450.72 -128 448 C-130.64 448 -133.28 448 -136 448 C-136 445.36 -136 442.72 -136 440 C-138.64 440 -141.28 440 -144 440 C-144 437.36 -144 434.72 -144 432 C-146.64 432 -149.28 432 -152 432 C-152 429.36 -152 426.72 -152 424 C-154.64 424 -157.28 424 -160 424 C-160 421.36 -160 418.72 -160 416 C-162.64 416 -165.28 416 -168 416 C-168 410.72 -168 405.44 -168 400 C-170.64 400 -173.28 400 -176 400 C-176 397.36 -176 394.72 -176 392 C-178.64 392 -181.28 392 -184 392 C-184 386.72 -184 381.44 -184 376 C-186.64 376 -189.28 376 -192 376 C-192 370.72 -192 365.44 -192 360 C-194.64 360 -197.28 360 -200 360 C-200 352.08 -200 344.16 -200 336 C-202.64 336 -205.28 336 -208 336 C-208 325.44 -208 314.88 -208 304 C-210.64 304 -213.28 304 -216 304 C-216 274.96 -216 245.92 -216 216 C-213.36 216 -210.72 216 -208 216 C-208 205.44 -208 194.88 -208 184 C-205.36 184 -202.72 184 -200 184 C-200 176.08 -200 168.16 -200 160 C-197.36 160 -194.72 160 -192 160 C-192 154.72 -192 149.44 -192 144 C-189.36 144 -186.72 144 -184 144 C-184 138.72 -184 133.44 -184 128 C-181.36 128 -178.72 128 -176 128 C-176 125.36 -176 122.72 -176 120 C-173.36 120 -170.72 120 -168 120 C-168 114.72 -168 109.44 -168 104 C-165.36 104 -162.72 104 -160 104 C-160 101.36 -160 98.72 -160 96 C-157.36 96 -154.72 96 -152 96 C-152 93.36 -152 90.72 -152 88 C-149.36 88 -146.72 88 -144 88 C-144 85.36 -144 82.72 -144 80 C-141.36 80 -138.72 80 -136 80 C-136 77.36 -136 74.72 -136 72 C-133.36 72 -130.72 72 -128 72 C-128 69.36 -128 66.72 -128 64 C-125.36 64 -122.72 64 -120 64 C-120 61.36 -120 58.72 -120 56 C-117.36 56 -114.72 56 -112 56 C-112 53.36 -112 50.72 -112 48 C-106.72 48 -101.44 48 -96 48 C-96 45.36 -96 42.72 -96 40 C-93.36 40 -90.72 40 -88 40 C-88 37.36 -88 34.72 -88 32 C-82.72 32 -77.44 32 -72 32 C-72 29.36 -72 26.72 -72 24 C-66.72 24 -61.44 24 -56 24 C-56 21.36 -56 18.72 -56 16 C-48.08 16 -40.16 16 -32 16 C-32 13.36 -32 10.72 -32 8 C-21.44 8 -10.88 8 0 8 C0 5.36 0 2.72 0 0 Z M184 472 C184 474.64 184 477.28 184 480 C186.64 480 189.28 480 192 480 C192 477.36 192 474.72 192 472 C189.36 472 186.72 472 184 472 Z " fill="#FFF200" transform="translate(216,0)"/>
<path d="M0 0 C29.04 0 58.08 0 88 0 C88 2.64 88 5.28 88 8 C98.56 8 109.12 8 120 8 C120 10.64 120 13.28 120 16 C127.92 16 135.84 16 144 16 C144 18.64 144 21.28 144 24 C149.28 24 154.56 24 160 24 C160 26.64 160 29.28 160 32 C165.28 32 170.56 32 176 32 C176 34.64 176 37.28 176 40 C178.64 40 181.28 40 184 40 C184 42.64 184 45.28 184 48 C189.28 48 194.56 48 200 48 C200 50.64 200 53.28 200 56 C202.64 56 205.28 56 208 56 C208 58.64 208 61.28 208 64 C210.64 64 213.28 64 216 64 C216 66.64 216 69.28 216 72 C218.64 72 221.28 72 224 72 C224 74.64 224 77.28 224 80 C226.64 80 229.28 80 232 80 C232 82.64 232 85.28 232 88 C234.64 88 237.28 88 240 88 C240 90.64 240 93.28 240 96 C242.64 96 245.28 96 248 96 C248 98.64 248 101.28 248 104 C250.64 104 253.28 104 256 104 C256 109.28 256 114.56 256 120 C258.64 120 261.28 120 264 120 C264 122.64 264 125.28 264 128 C266.64 128 269.28 128 272 128 C272 133.28 272 138.56 272 144 C274.64 144 277.28 144 280 144 C280 149.28 280 154.56 280 160 C282.64 160 285.28 160 288 160 C288 167.92 288 175.84 288 184 C290.64 184 293.28 184 296 184 C296 234.16 296 284.32 296 336 C293.36 336 290.72 336 288 336 C288 343.92 288 351.84 288 360 C285.36 360 282.72 360 280 360 C280 365.28 280 370.56 280 376 C277.36 376 274.72 376 272 376 C272 381.28 272 386.56 272 392 C269.36 392 266.72 392 264 392 C264 394.64 264 397.28 264 400 C261.36 400 258.72 400 256 400 C256 405.28 256 410.56 256 416 C253.36 416 250.72 416 248 416 C248 418.64 248 421.28 248 424 C250.64 424 253.28 424 256 424 C256 426.64 256 429.28 256 432 C258.64 432 261.28 432 264 432 C264 442.56 264 453.12 264 464 C261.36 464 258.72 464 256 464 C256 466.64 256 469.28 256 472 C258.64 472 261.28 472 264 472 C264 474.64 264 477.28 264 480 C266.64 480 269.28 480 272 480 C272 490.56 272 501.12 272 512 C258.8 512 245.6 512 232 512 C232 509.36 232 506.72 232 504 C229.36 504 226.72 504 224 504 C224 498.72 224 493.44 224 488 C221.36 488 218.72 488 216 488 C216 485.36 216 482.72 216 480 C221.28 480 226.56 480 232 480 C232 485.28 232 490.56 232 496 C234.64 496 237.28 496 240 496 C240 498.64 240 501.28 240 504 C247.92 504 255.84 504 264 504 C264 498.72 264 493.44 264 488 C261.36 488 258.72 488 256 488 C256 485.36 256 482.72 256 480 C253.36 480 250.72 480 248 480 C248 477.36 248 474.72 248 472 C245.36 472 242.72 472 240 472 C240 466.72 240 461.44 240 456 C242.64 456 245.28 456 248 456 C248 448.08 248 440.16 248 432 C242.72 432 237.44 432 232 432 C232 429.36 232 426.72 232 424 C226.72 424 221.44 424 216 424 C216 421.36 216 418.72 216 416 C210.72 416 205.44 416 200 416 C200 413.36 200 410.72 200 408 C205.28 408 210.56 408 216 408 C216 331.44 216 254.88 216 176 C186.96 176 157.92 176 128 176 C128 183.92 128 191.84 128 200 C125.36 200 122.72 200 120 200 C120 192.08 120 184.16 120 176 C69.84 176 19.68 176 -32 176 C-32 183.92 -32 191.84 -32 200 C-34.64 200 -37.28 200 -40 200 C-40 192.08 -40 184.16 -40 176 C-69.04 176 -98.08 176 -128 176 C-128 265.76 -128 355.52 -128 448 C-130.64 448 -133.28 448 -136 448 C-136 445.36 -136 442.72 -136 440 C-138.64 440 -141.28 440 -144 440 C-144 437.36 -144 434.72 -144 432 C-146.64 432 -149.28 432 -152 432 C-152 429.36 -152 426.72 -152 424 C-154.64 424 -157.28 424 -160 424 C-160 421.36 -160 418.72 -160 416 C-162.64 416 -165.28 416 -168 416 C-168 410.72 -168 405.44 -168 400 C-170.64 400 -173.28 400 -176 400 C-176 397.36 -176 394.72 -176 392 C-178.64 392 -181.28 392 -184 392 C-184 386.72 -184 381.44 -184 376 C-186.64 376 -189.28 376 -192 376 C-192 370.72 -192 365.44 -192 360 C-194.64 360 -197.28 360 -200 360 C-200 352.08 -200 344.16 -200 336 C-202.64 336 -205.28 336 -208 336 C-208 325.44 -208 314.88 -208 304 C-210.64 304 -213.28 304 -216 304 C-216 274.96 -216 245.92 -216 216 C-213.36 216 -210.72 216 -208 216 C-208 205.44 -208 194.88 -208 184 C-205.36 184 -202.72 184 -200 184 C-200 176.08 -200 168.16 -200 160 C-197.36 160 -194.72 160 -192 160 C-192 154.72 -192 149.44 -192 144 C-189.36 144 -186.72 144 -184 144 C-184 138.72 -184 133.44 -184 128 C-181.36 128 -178.72 128 -176 128 C-176 125.36 -176 122.72 -176 120 C-173.36 120 -170.72 120 -168 120 C-168 114.72 -168 109.44 -168 104 C-165.36 104 -162.72 104 -160 104 C-160 101.36 -160 98.72 -160 96 C-157.36 96 -154.72 96 -152 96 C-152 93.36 -152 90.72 -152 88 C-149.36 88 -146.72 88 -144 88 C-144 85.36 -144 82.72 -144 80 C-141.36 80 -138.72 80 -136 80 C-136 77.36 -136 74.72 -136 72 C-133.36 72 -130.72 72 -128 72 C-128 69.36 -128 66.72 -128 64 C-125.36 64 -122.72 64 -120 64 C-120 61.36 -120 58.72 -120 56 C-117.36 56 -114.72 56 -112 56 C-112 53.36 -112 50.72 -112 48 C-106.72 48 -101.44 48 -96 48 C-96 45.36 -96 42.72 -96 40 C-93.36 40 -90.72 40 -88 40 C-88 37.36 -88 34.72 -88 32 C-82.72 32 -77.44 32 -72 32 C-72 29.36 -72 26.72 -72 24 C-66.72 24 -61.44 24 -56 24 C-56 21.36 -56 18.72 -56 16 C-48.08 16 -40.16 16 -32 16 C-32 13.36 -32 10.72 -32 8 C-21.44 8 -10.88 8 0 8 C0 5.36 0 2.72 0 0 Z " fill="#000000" transform="translate(216,0)"/>
<path d="M0 0 C2.64 0 5.28 0 8 0 C8 10.56 8 21.12 8 32 C10.64 32 13.28 32 16 32 C16 39.92 16 47.84 16 56 C21.28 56 26.56 56 32 56 C32 58.64 32 61.28 32 64 C21.44 64 10.88 64 0 64 C0 58.72 0 53.44 0 48 C-2.64 48 -5.28 48 -8 48 C-8 50.64 -8 53.28 -8 56 C-13.28 56 -18.56 56 -24 56 C-24 58.64 -24 61.28 -24 64 C-29.28 64 -34.56 64 -40 64 C-40 66.64 -40 69.28 -40 72 C-47.92 72 -55.84 72 -64 72 C-64 74.64 -64 77.28 -64 80 C-114.16 80 -164.32 80 -216 80 C-216 77.36 -216 74.72 -216 72 C-223.92 72 -231.84 72 -240 72 C-240 69.36 -240 66.72 -240 64 C-245.28 64 -250.56 64 -256 64 C-256 61.36 -256 58.72 -256 56 C-261.28 56 -266.56 56 -272 56 C-272 53.36 -272 50.72 -272 48 C-274.64 48 -277.28 48 -280 48 C-280 45.36 -280 42.72 -280 40 C-285.28 40 -290.56 40 -296 40 C-296 37.36 -296 34.72 -296 32 C-298.64 32 -301.28 32 -304 32 C-304 29.36 -304 26.72 -304 24 C-306.64 24 -309.28 24 -312 24 C-312 21.36 -312 18.72 -312 16 C-209.04 16 -106.08 16 0 16 C0 10.72 0 5.44 0 0 Z M0 40 C0 42.64 0 45.28 0 48 C2.64 48 5.28 48 8 48 C8 45.36 8 42.72 8 40 C5.36 40 2.72 40 0 40 Z " fill="#000000" transform="translate(400,432)"/>
<path d="M0 0 C5.28 0 10.56 0 16 0 C16 23.76 16 47.52 16 72 C13.36 72 10.72 72 8 72 C8 77.28 8 82.56 8 88 C10.64 88 13.28 88 16 88 C16 93.28 16 98.56 16 104 C21.28 104 26.56 104 32 104 C32 106.64 32 109.28 32 112 C37.28 112 42.56 112 48 112 C48 114.64 48 117.28 48 120 C53.28 120 58.56 120 64 120 C64 127.92 64 135.84 64 144 C61.36 144 58.72 144 56 144 C56 149.28 56 154.56 56 160 C58.64 160 61.28 160 64 160 C64 162.64 64 165.28 64 168 C66.64 168 69.28 168 72 168 C72 170.64 72 173.28 72 176 C74.64 176 77.28 176 80 176 C80 181.28 80 186.56 80 192 C72.08 192 64.16 192 56 192 C56 189.36 56 186.72 56 184 C53.36 184 50.72 184 48 184 C48 178.72 48 173.44 48 168 C42.72 168 37.44 168 32 168 C32 170.64 32 173.28 32 176 C26.72 176 21.44 176 16 176 C16 168.08 16 160.16 16 152 C13.36 152 10.72 152 8 152 C8 141.44 8 130.88 8 120 C2.72 120 -2.56 120 -8 120 C-8 114.72 -8 109.44 -8 104 C-10.64 104 -13.28 104 -16 104 C-16 101.36 -16 98.72 -16 96 C-18.64 96 -21.28 96 -24 96 C-24 93.36 -24 90.72 -24 88 C-26.64 88 -29.28 88 -32 88 C-32 90.64 -32 93.28 -32 96 C-34.64 96 -37.28 96 -40 96 C-40 101.28 -40 106.56 -40 112 C-45.28 112 -50.56 112 -56 112 C-56 109.36 -56 106.72 -56 104 C-58.64 104 -61.28 104 -64 104 C-64 98.72 -64 93.44 -64 88 C-66.64 88 -69.28 88 -72 88 C-72 80.08 -72 72.16 -72 64 C-74.64 64 -77.28 64 -80 64 C-80 58.72 -80 53.44 -80 48 C-82.64 48 -85.28 48 -88 48 C-88 37.44 -88 26.88 -88 16 C-82.72 16 -77.44 16 -72 16 C-72 23.92 -72 31.84 -72 40 C-69.36 40 -66.72 40 -64 40 C-64 45.28 -64 50.56 -64 56 C-61.36 56 -58.72 56 -56 56 C-56 63.92 -56 71.84 -56 80 C-53.36 80 -50.72 80 -48 80 C-48 69.44 -48 58.88 -48 48 C-40.08 48 -32.16 48 -24 48 C-24 55.92 -24 63.84 -24 72 C-21.36 72 -18.72 72 -16 72 C-16 74.64 -16 77.28 -16 80 C-13.36 80 -10.72 80 -8 80 C-8 74.72 -8 69.44 -8 64 C-5.36 64 -2.72 64 0 64 C0 42.88 0 21.76 0 0 Z " fill="#FFFFFF" transform="translate(400,312)"/>
<path d="M0 0 C13.2 0 26.4 0 40 0 C40 2.64 40 5.28 40 8 C42.64 8 45.28 8 48 8 C48 10.64 48 13.28 48 16 C50.64 16 53.28 16 56 16 C56 18.64 56 21.28 56 24 C58.64 24 61.28 24 64 24 C64 26.64 64 29.28 64 32 C66.64 32 69.28 32 72 32 C72 50.48 72 68.96 72 88 C69.36 88 66.72 88 64 88 C64 90.64 64 93.28 64 96 C58.72 96 53.44 96 48 96 C48 98.64 48 101.28 48 104 C40.08 104 32.16 104 24 104 C24 101.36 24 98.72 24 96 C16.08 96 8.16 96 0 96 C0 93.36 0 90.72 0 88 C-2.64 88 -5.28 88 -8 88 C-8 82.72 -8 77.44 -8 72 C-10.64 72 -13.28 72 -16 72 C-16 58.8 -16 45.6 -16 32 C-13.36 32 -10.72 32 -8 32 C-8 26.72 -8 21.44 -8 16 C-5.36 16 -2.72 16 0 16 C0 10.72 0 5.44 0 0 Z " fill="#FFFFFF" transform="translate(232,320)"/>
<path d="M0 0 C7.92 0 15.84 0 24 0 C24 2.64 24 5.28 24 8 C26.64 8 29.28 8 32 8 C32 13.28 32 18.56 32 24 C34.64 24 37.28 24 40 24 C40 26.64 40 29.28 40 32 C42.64 32 45.28 32 48 32 C48 37.28 48 42.56 48 48 C50.64 48 53.28 48 56 48 C56 53.28 56 58.56 56 64 C58.64 64 61.28 64 64 64 C64 66.64 64 69.28 64 72 C66.64 72 69.28 72 72 72 C72 74.64 72 77.28 72 80 C74.64 80 77.28 80 80 80 C80 82.64 80 85.28 80 88 C82.64 88 85.28 88 88 88 C88 72.16 88 56.32 88 40 C85.36 40 82.72 40 80 40 C80 29.44 80 18.88 80 8 C85.28 8 90.56 8 96 8 C96 13.28 96 18.56 96 24 C98.64 24 101.28 24 104 24 C104 53.04 104 82.08 104 112 C93.44 112 82.88 112 72 112 C72 109.36 72 106.72 72 104 C69.36 104 66.72 104 64 104 C64 101.36 64 98.72 64 96 C61.36 96 58.72 96 56 96 C56 93.36 56 90.72 56 88 C53.36 88 50.72 88 48 88 C48 82.72 48 77.44 48 72 C45.36 72 42.72 72 40 72 C40 69.36 40 66.72 40 64 C37.36 64 34.72 64 32 64 C32 58.72 32 53.44 32 48 C29.36 48 26.72 48 24 48 C24 42.72 24 37.44 24 32 C21.36 32 18.72 32 16 32 C16 42.56 16 53.12 16 64 C18.64 64 21.28 64 24 64 C24 82.48 24 100.96 24 120 C18.72 120 13.44 120 8 120 C8 106.8 8 93.6 8 80 C5.36 80 2.72 80 0 80 C0 53.6 0 27.2 0 0 Z " fill="#FFFFFF" transform="translate(96,312)"/>
<path d="M0 0 C5.28 0 10.56 0 16 0 C16 2.64 16 5.28 16 8 C21.28 8 26.56 8 32 8 C32 10.64 32 13.28 32 16 C37.28 16 42.56 16 48 16 C48 18.64 48 21.28 48 24 C53.28 24 58.56 24 64 24 C64 31.92 64 39.84 64 48 C61.36 48 58.72 48 56 48 C56 53.28 56 58.56 56 64 C58.64 64 61.28 64 64 64 C64 66.64 64 69.28 64 72 C66.64 72 69.28 72 72 72 C72 74.64 72 77.28 72 80 C74.64 80 77.28 80 80 80 C80 85.28 80 90.56 80 96 C72.08 96 64.16 96 56 96 C56 93.36 56 90.72 56 88 C53.36 88 50.72 88 48 88 C48 82.72 48 77.44 48 72 C42.72 72 37.44 72 32 72 C32 74.64 32 77.28 32 80 C26.72 80 21.44 80 16 80 C16 72.08 16 64.16 16 56 C13.36 56 10.72 56 8 56 C8 45.44 8 34.88 8 24 C5.36 24 2.72 24 0 24 C0 16.08 0 8.16 0 0 Z " fill="#FFFFFF" transform="translate(400,408)"/>
<path d="M0 0 C15.84 0 31.68 0 48 0 C48 26.4 48 52.8 48 80 C32.16 80 16.32 80 0 80 C0 53.6 0 27.2 0 0 Z " fill="#FFFFFF" transform="translate(240,216)"/>
<path d="M0 0 C18.48 0 36.96 0 56 0 C56 15.84 56 31.68 56 48 C42.8 48 29.6 48 16 48 C16 58.56 16 69.12 16 80 C10.72 80 5.44 80 0 80 C0 53.6 0 27.2 0 0 Z " fill="#FFFFFF" transform="translate(304,216)"/>
<path d="M0 0 C5.28 0 10.56 0 16 0 C16 10.56 16 21.12 16 32 C21.28 32 26.56 32 32 32 C32 21.44 32 10.88 32 0 C37.28 0 42.56 0 48 0 C48 26.4 48 52.8 48 80 C42.72 80 37.44 80 32 80 C32 69.44 32 58.88 32 48 C26.72 48 21.44 48 16 48 C16 58.56 16 69.12 16 80 C10.72 80 5.44 80 0 80 C0 53.6 0 27.2 0 0 Z " fill="#FFFFFF" transform="translate(176,216)"/>
<path d="M0 0 C13.2 0 26.4 0 40 0 C40 5.28 40 10.56 40 16 C32.08 16 24.16 16 16 16 C16 21.28 16 26.56 16 32 C23.92 32 31.84 32 40 32 C40 47.84 40 63.68 40 80 C24.16 80 8.32 80 -8 80 C-8 74.72 -8 69.44 -8 64 C2.56 64 13.12 64 24 64 C24 58.72 24 53.44 24 48 C16.08 48 8.16 48 0 48 C0 45.36 0 42.72 0 40 C-2.64 40 -5.28 40 -8 40 C-8 29.44 -8 18.88 -8 8 C-5.36 8 -2.72 8 0 8 C0 5.36 0 2.72 0 0 Z " fill="#FFFFFF" transform="translate(120,216)"/>
<path d="M0 0 C5.28 0 10.56 0 16 0 C16 2.64 16 5.28 16 8 C18.64 8 21.28 8 24 8 C24 10.64 24 13.28 24 16 C26.64 16 29.28 16 32 16 C32 21.28 32 26.56 32 32 C34.64 32 37.28 32 40 32 C40 42.56 40 53.12 40 64 C26.8 64 13.6 64 0 64 C0 61.36 0 58.72 0 56 C-2.64 56 -5.28 56 -8 56 C-8 50.72 -8 45.44 -8 40 C-10.64 40 -13.28 40 -16 40 C-16 37.36 -16 34.72 -16 32 C-13.36 32 -10.72 32 -8 32 C-8 24.08 -8 16.16 -8 8 C-5.36 8 -2.72 8 0 8 C0 5.36 0 2.72 0 0 Z " fill="#FFF200" transform="translate(248,336)"/>
<path d="M0 0 C55.44 0 110.88 0 168 0 C168 26.4 168 52.8 168 80 C165.36 80 162.72 80 160 80 C160 56.24 160 32.48 160 8 C109.84 8 59.68 8 8 8 C8 31.76 8 55.52 8 80 C5.36 80 2.72 80 0 80 C0 53.6 0 27.2 0 0 Z " fill="#6F3198" transform="translate(176,120)"/>
<path d="M0 0 C7.92 0 15.84 0 24 0 C24 2.64 24 5.28 24 8 C26.64 8 29.28 8 32 8 C32 18.56 32 29.12 32 40 C29.36 40 26.72 40 24 40 C24 42.64 24 45.28 24 48 C26.64 48 29.28 48 32 48 C32 50.64 32 53.28 32 56 C34.64 56 37.28 56 40 56 C40 66.56 40 77.12 40 88 C26.8 88 13.6 88 0 88 C0 85.36 0 82.72 0 80 C-2.64 80 -5.28 80 -8 80 C-8 74.72 -8 69.44 -8 64 C-10.64 64 -13.28 64 -16 64 C-16 61.36 -16 58.72 -16 56 C-10.72 56 -5.44 56 0 56 C0 61.28 0 66.56 0 72 C2.64 72 5.28 72 8 72 C8 74.64 8 77.28 8 80 C15.92 80 23.84 80 32 80 C32 74.72 32 69.44 32 64 C29.36 64 26.72 64 24 64 C24 61.36 24 58.72 24 56 C21.36 56 18.72 56 16 56 C16 53.36 16 50.72 16 48 C13.36 48 10.72 48 8 48 C8 42.72 8 37.44 8 32 C10.64 32 13.28 32 16 32 C16 24.08 16 16.16 16 8 C10.72 8 5.44 8 0 8 C0 5.36 0 2.72 0 0 Z " fill="#6F3198" transform="translate(448,424)"/>
<path d="M0 0 C5.28 0 10.56 0 16 0 C16 15.84 16 31.68 16 48 C10.72 48 5.44 48 0 48 C0 32.16 0 16.32 0 0 Z " fill="#FFF200" transform="translate(256,232)"/>
<path d="M0 0 C2.64 0 5.28 0 8 0 C8 7.92 8 15.84 8 24 C13.28 24 18.56 24 24 24 C24 26.64 24 29.28 24 32 C13.44 32 2.88 32 -8 32 C-8 26.72 -8 21.44 -8 16 C-5.36 16 -2.72 16 0 16 C0 10.72 0 5.44 0 0 Z " fill="#6F3198" transform="translate(408,464)"/>
<path d="M0 0 C7.92 0 15.84 0 24 0 C24 2.64 24 5.28 24 8 C18.72 8 13.44 8 8 8 C8 15.92 8 23.84 8 32 C5.36 32 2.72 32 0 32 C0 21.44 0 10.88 0 0 Z " fill="#6F3198" transform="translate(392,400)"/>
<path d="M0 0 C7.92 0 15.84 0 24 0 C24 5.28 24 10.56 24 16 C16.08 16 8.16 16 0 16 C0 10.72 0 5.44 0 0 Z " fill="#FFF200" transform="translate(320,232)"/>
<path d="M0 0 C2.64 0 5.28 0 8 0 C8 10.56 8 21.12 8 32 C5.36 32 2.72 32 0 32 C0 21.44 0 10.88 0 0 Z " fill="#6F3198" transform="translate(400,432)"/>
<path d="M0 0 C5.28 0 10.56 0 16 0 C16 2.64 16 5.28 16 8 C10.72 8 5.44 8 0 8 C0 5.36 0 2.72 0 0 Z " fill="#6F3198" transform="translate(432,416)"/>
<path d="M0 0 C5.28 0 10.56 0 16 0 C16 2.64 16 5.28 16 8 C10.72 8 5.44 8 0 8 C0 5.36 0 2.72 0 0 Z " fill="#6F3198" transform="translate(416,408)"/>
</svg>
