<svg xmlns="http://www.w3.org/2000/svg" xmlns:xlink="http://www.w3.org/1999/xlink" width="500" zoomAndPan="magnify" viewBox="0 0 375 374.999991" height="500" preserveAspectRatio="xMidYMid meet" version="1.0"><defs><g/><clipPath id="eef413bd9d"><path d="M 87 37.5 L 288 37.5 L 288 276.75 L 87 276.75 Z M 87 37.5 " clip-rule="nonzero"/></clipPath><clipPath id="af73bb835e"><rect x="0" width="171" y="0" height="70"/></clipPath><clipPath id="0f76c92e98"><rect x="0" width="176" y="0" height="95"/></clipPath><clipPath id="a0c0c4349e"><rect x="0" width="175" y="0" height="23"/></clipPath></defs><rect x="-37.5" width="450" fill="#ffffff" y="-37.499999" height="449.999989" fill-opacity="1"/><rect x="-37.5" width="450" fill="#fafafa" y="-37.499999" height="449.999989" fill-opacity="1"/><g clip-path="url(#eef413bd9d)"><path fill="#ffc72c" d="M 187.253906 37.863281 C 184.757812 37.867188 182.265625 37.960938 179.777344 38.148438 C 177.289062 38.339844 174.808594 38.621094 172.34375 38.992188 C 169.875 39.367188 167.425781 39.832031 164.992188 40.390625 C 162.558594 40.949219 160.148438 41.59375 157.765625 42.332031 C 155.382812 43.070312 153.027344 43.894531 150.703125 44.808594 C 148.382812 45.722656 146.097656 46.722656 143.847656 47.808594 C 141.601562 48.890625 139.398438 50.058594 137.234375 51.308594 C 135.074219 52.558594 132.964844 53.886719 130.902344 55.292969 C 128.84375 56.703125 126.835938 58.183594 124.886719 59.742188 C 122.9375 61.300781 121.046875 62.925781 119.21875 64.625 C 117.390625 66.324219 115.628906 68.089844 113.929688 69.921875 C 112.234375 71.75 110.609375 73.644531 109.054688 75.59375 C 107.5 77.546875 106.019531 79.554688 104.613281 81.617188 C 103.210938 83.683594 101.882812 85.792969 100.636719 87.957031 C 99.390625 90.117188 98.226562 92.324219 97.144531 94.574219 C 96.0625 96.824219 95.066406 99.109375 94.15625 101.433594 C 93.246094 103.757812 92.425781 106.113281 91.691406 108.5 C 90.957031 110.882812 90.3125 113.292969 89.757812 115.726562 C 89.203125 118.160156 88.742188 120.613281 88.371094 123.078125 C 88 125.546875 87.722656 128.027344 87.539062 130.515625 C 87.351562 133.003906 87.261719 135.496094 87.261719 137.992188 C 87.265625 140.488281 87.359375 142.980469 87.546875 145.46875 C 87.734375 147.957031 88.015625 150.4375 88.386719 152.90625 C 88.761719 155.371094 89.226562 157.824219 89.78125 160.257812 C 90.339844 162.6875 90.984375 165.097656 91.722656 167.484375 C 92.460938 169.867188 93.285156 172.222656 94.199219 174.542969 C 95.109375 176.867188 96.109375 179.152344 97.191406 181.402344 C 98.277344 183.648438 99.441406 185.855469 100.691406 188.015625 C 101.941406 190.175781 103.269531 192.285156 104.675781 194.347656 C 106.082031 196.410156 107.566406 198.417969 109.121094 200.367188 C 110.679688 202.316406 112.304688 204.207031 114.003906 206.035156 C 115.703125 207.867188 117.46875 209.628906 119.296875 211.324219 L 183.832031 275.902344 C 184.796875 276.789062 185.933594 277.242188 187.242188 277.273438 C 188.621094 277.246094 189.839844 276.789062 190.894531 275.902344 L 254.414062 212.132812 C 256.28125 210.449219 258.082031 208.699219 259.816406 206.882812 C 261.550781 205.066406 263.214844 203.1875 264.804688 201.246094 C 266.398438 199.300781 267.914062 197.300781 269.359375 195.246094 C 270.800781 193.1875 272.160156 191.082031 273.445312 188.921875 C 274.726562 186.761719 275.929688 184.558594 277.042969 182.308594 C 278.160156 180.058594 279.191406 177.769531 280.136719 175.441406 C 281.082031 173.113281 281.9375 170.753906 282.703125 168.363281 C 283.46875 165.96875 284.144531 163.550781 284.730469 161.109375 C 285.3125 158.667969 285.804688 156.207031 286.203125 153.726562 C 286.601562 151.246094 286.90625 148.753906 287.117188 146.25 C 287.328125 143.75 287.445312 141.242188 287.46875 138.730469 C 287.488281 136.21875 287.417969 133.707031 287.25 131.203125 C 287.082031 128.695312 286.824219 126.199219 286.46875 123.714844 C 286.113281 121.226562 285.664062 118.757812 285.121094 116.304688 C 284.582031 113.851562 283.949219 111.421875 283.222656 109.015625 C 282.5 106.613281 281.6875 104.238281 280.78125 101.894531 C 279.878906 99.550781 278.890625 97.242188 277.8125 94.972656 C 276.734375 92.707031 275.574219 90.480469 274.328125 88.296875 C 273.085938 86.117188 271.757812 83.984375 270.355469 81.902344 C 268.949219 79.820312 267.464844 77.796875 265.910156 75.824219 C 264.351562 73.855469 262.71875 71.945312 261.019531 70.097656 C 259.316406 68.253906 257.546875 66.472656 255.710938 64.757812 C 253.875 63.042969 251.976562 61.402344 250.015625 59.832031 C 248.058594 58.257812 246.039062 56.765625 243.96875 55.34375 C 241.894531 53.925781 239.773438 52.585938 237.597656 51.328125 C 235.425781 50.070312 233.207031 48.894531 230.945312 47.804688 C 228.683594 46.710938 226.382812 45.707031 224.046875 44.789062 C 221.707031 43.871094 219.339844 43.039062 216.9375 42.300781 C 214.539062 41.558594 212.113281 40.910156 209.664062 40.355469 C 207.214844 39.796875 204.746094 39.332031 202.261719 38.960938 C 199.777344 38.589844 197.285156 38.3125 194.78125 38.128906 C 192.273438 37.945312 189.765625 37.859375 187.253906 37.863281 Z M 164.320312 200.089844 C 163.464844 200.078125 162.617188 199.984375 161.78125 199.804688 C 160.941406 199.628906 160.128906 199.371094 159.34375 199.03125 C 158.558594 198.695312 157.8125 198.285156 157.105469 197.800781 C 156.398438 197.316406 155.75 196.769531 155.148438 196.15625 C 154.550781 195.546875 154.019531 194.882812 153.550781 194.164062 C 153.082031 193.449219 152.691406 192.691406 152.371094 191.898438 C 152.050781 191.105469 151.8125 190.289062 151.652344 189.445312 C 151.496094 188.605469 151.417969 187.757812 151.425781 186.902344 C 151.4375 186.046875 151.527344 185.199219 151.699219 184.359375 C 151.875 183.523438 152.128906 182.710938 152.464844 181.921875 C 152.796875 181.136719 153.203125 180.386719 153.683594 179.679688 C 154.167969 178.972656 154.710938 178.316406 155.320312 177.714844 C 155.929688 177.117188 156.59375 176.578125 157.308594 176.109375 C 158.023438 175.636719 158.773438 175.242188 159.566406 174.917969 C 160.359375 174.597656 161.175781 174.355469 162.015625 174.191406 C 162.855469 174.027344 163.703125 173.949219 164.5625 173.953125 C 165.417969 173.957031 166.261719 174.046875 167.101562 174.21875 C 167.941406 174.386719 168.753906 174.636719 169.542969 174.96875 C 170.332031 175.300781 171.082031 175.703125 171.792969 176.179688 C 172.503906 176.660156 173.160156 177.203125 173.761719 177.808594 C 174.367188 178.414062 174.902344 179.074219 175.378906 179.789062 C 175.851562 180.5 176.25 181.253906 176.578125 182.042969 C 176.902344 182.835938 177.148438 183.648438 177.316406 184.488281 C 177.480469 185.328125 177.5625 186.175781 177.5625 187.03125 C 177.554688 187.894531 177.464844 188.75 177.289062 189.59375 C 177.113281 190.441406 176.859375 191.261719 176.523438 192.054688 C 176.183594 192.851562 175.773438 193.605469 175.289062 194.320312 C 174.804688 195.03125 174.253906 195.691406 173.640625 196.300781 C 173.027344 196.90625 172.359375 197.445312 171.636719 197.921875 C 170.914062 198.394531 170.15625 198.792969 169.355469 199.121094 C 168.554688 199.445312 167.734375 199.6875 166.886719 199.851562 C 166.039062 200.015625 165.183594 200.09375 164.320312 200.089844 Z M 209.097656 200.089844 C 208.238281 200.089844 207.386719 200.007812 206.546875 199.839844 C 205.703125 199.671875 204.886719 199.425781 204.09375 199.097656 C 203.300781 198.769531 202.546875 198.367188 201.832031 197.890625 C 201.117188 197.414062 200.457031 196.875 199.851562 196.265625 C 199.242188 195.660156 198.699219 195 198.222656 194.285156 C 197.746094 193.574219 197.34375 192.820312 197.015625 192.027344 C 196.6875 191.234375 196.4375 190.417969 196.269531 189.574219 C 196.101562 188.734375 196.019531 187.882812 196.015625 187.023438 C 196.015625 186.167969 196.101562 185.316406 196.269531 184.472656 C 196.433594 183.632812 196.683594 182.816406 197.011719 182.023438 C 197.339844 181.230469 197.742188 180.476562 198.21875 179.761719 C 198.695312 179.046875 199.238281 178.386719 199.84375 177.78125 C 200.453125 177.171875 201.113281 176.632812 201.824219 176.15625 C 202.539062 175.679688 203.292969 175.277344 204.085938 174.949219 C 204.878906 174.617188 205.695312 174.371094 206.539062 174.203125 C 207.378906 174.035156 208.230469 173.953125 209.089844 173.953125 C 209.949219 173.953125 210.796875 174.039062 211.640625 174.207031 C 212.480469 174.371094 213.296875 174.621094 214.089844 174.949219 C 214.882812 175.277344 215.636719 175.683594 216.351562 176.160156 C 217.066406 176.636719 217.726562 177.179688 218.332031 177.785156 C 218.9375 178.394531 219.480469 179.054688 219.957031 179.769531 C 220.433594 180.480469 220.835938 181.234375 221.164062 182.027344 C 221.492188 182.820312 221.738281 183.640625 221.90625 184.480469 C 222.070312 185.324219 222.15625 186.175781 222.152344 187.03125 C 222.148438 187.886719 222.0625 188.734375 221.890625 189.574219 C 221.71875 190.410156 221.46875 191.226562 221.140625 192.015625 C 220.8125 192.804688 220.40625 193.554688 219.933594 194.265625 C 219.457031 194.976562 218.914062 195.632812 218.3125 196.238281 C 217.707031 196.84375 217.046875 197.386719 216.339844 197.863281 C 215.628906 198.339844 214.878906 198.742188 214.089844 199.070312 C 213.300781 199.402344 212.484375 199.652344 211.648438 199.824219 C 210.808594 199.996094 209.964844 200.082031 209.109375 200.089844 Z M 230.730469 122.34375 L 220.53125 160.542969 C 220.355469 161.164062 220.132812 161.765625 219.859375 162.347656 C 219.585938 162.933594 219.269531 163.492188 218.90625 164.023438 C 218.542969 164.558594 218.140625 165.058594 217.699219 165.527344 C 217.253906 165.996094 216.777344 166.425781 216.265625 166.816406 C 215.753906 167.207031 215.214844 167.558594 214.648438 167.863281 C 214.078125 168.167969 213.492188 168.425781 212.882812 168.636719 C 212.273438 168.847656 211.652344 169.007812 211.015625 169.117188 C 210.378906 169.226562 209.742188 169.289062 209.097656 169.296875 L 164.320312 169.296875 C 163.675781 169.300781 163.035156 169.25 162.402344 169.148438 C 161.765625 169.046875 161.144531 168.890625 160.535156 168.6875 C 159.925781 168.480469 159.335938 168.226562 158.769531 167.921875 C 158.203125 167.621094 157.664062 167.273438 157.15625 166.882812 C 156.644531 166.488281 156.171875 166.058594 155.734375 165.585938 C 155.292969 165.117188 154.898438 164.613281 154.542969 164.078125 C 154.1875 163.539062 153.878906 162.976562 153.617188 162.390625 C 153.355469 161.804688 153.144531 161.199219 152.984375 160.574219 L 142.53125 122.34375 C 142.542969 122.265625 142.542969 122.1875 142.53125 122.113281 L 137.960938 105.203125 L 130.984375 105.203125 C 130.667969 105.1875 130.351562 105.140625 130.039062 105.066406 C 129.730469 104.992188 129.429688 104.886719 129.136719 104.753906 C 128.847656 104.621094 128.570312 104.464844 128.308594 104.277344 C 128.050781 104.09375 127.808594 103.882812 127.589844 103.652344 C 127.367188 103.421875 127.171875 103.171875 126.996094 102.902344 C 126.824219 102.632812 126.679688 102.351562 126.558594 102.054688 C 126.441406 101.757812 126.351562 101.449219 126.289062 101.136719 C 126.230469 100.824219 126.199219 100.503906 126.199219 100.1875 C 126.199219 99.867188 126.230469 99.550781 126.289062 99.234375 C 126.351562 98.921875 126.441406 98.617188 126.558594 98.320312 C 126.679688 98.023438 126.824219 97.738281 126.996094 97.46875 C 127.171875 97.199219 127.367188 96.949219 127.589844 96.71875 C 127.808594 96.488281 128.050781 96.28125 128.308594 96.09375 C 128.570312 95.910156 128.847656 95.75 129.136719 95.617188 C 129.429688 95.484375 129.730469 95.378906 130.039062 95.304688 C 130.351562 95.230469 130.667969 95.183594 130.984375 95.167969 L 141.8125 95.167969 C 142.351562 95.148438 142.878906 95.21875 143.394531 95.382812 C 143.910156 95.546875 144.378906 95.792969 144.808594 96.117188 C 145.238281 96.445312 145.597656 96.835938 145.890625 97.289062 C 146.183594 97.742188 146.394531 98.230469 146.515625 98.757812 L 151.152344 116.140625 L 225.917969 116.140625 C 226.6875 116.089844 227.417969 116.238281 228.109375 116.578125 C 228.800781 116.917969 229.363281 117.410156 229.792969 118.050781 C 230.3125 118.632812 230.65625 119.308594 230.824219 120.074219 C 230.996094 120.835938 230.964844 121.59375 230.742188 122.34375 Z M 230.730469 122.34375 " fill-opacity="1" fill-rule="nonzero"/></g><g transform="matrix(1, 0, 0, 1, 106, 184)"><g clip-path="url(#af73bb835e)"><g fill="#ef8121" fill-opacity="0.4"><g transform="translate(1.083156, 54.971259)"><g><path d="M 17.578125 0.78125 C 14.421875 0.78125 11.359375 0.390625 8.390625 -0.390625 C 5.429688 -1.171875 3.023438 -2.207031 1.171875 -3.5 L 4.78125 -11.625 C 6.519531 -10.476562 8.539062 -9.550781 10.84375 -8.84375 C 13.144531 -8.132812 15.40625 -7.78125 17.625 -7.78125 C 21.851562 -7.78125 23.96875 -8.835938 23.96875 -10.953125 C 23.96875 -12.066406 23.363281 -12.890625 22.15625 -13.421875 C 20.957031 -13.960938 19.019531 -14.53125 16.34375 -15.125 C 13.414062 -15.757812 10.96875 -16.4375 9 -17.15625 C 7.039062 -17.875 5.351562 -19.03125 3.9375 -20.625 C 2.53125 -22.21875 1.828125 -24.367188 1.828125 -27.078125 C 1.828125 -29.453125 2.476562 -31.59375 3.78125 -33.5 C 5.082031 -35.414062 7.019531 -36.925781 9.59375 -38.03125 C 12.164062 -39.144531 15.328125 -39.703125 19.078125 -39.703125 C 21.628906 -39.703125 24.144531 -39.414062 26.625 -38.84375 C 29.113281 -38.269531 31.304688 -37.425781 33.203125 -36.3125 L 29.8125 -28.140625 C 26.101562 -30.140625 22.503906 -31.140625 19.015625 -31.140625 C 16.828125 -31.140625 15.234375 -30.8125 14.234375 -30.15625 C 13.234375 -29.507812 12.734375 -28.671875 12.734375 -27.640625 C 12.734375 -26.597656 13.328125 -25.816406 14.515625 -25.296875 C 15.703125 -24.785156 17.609375 -24.25 20.234375 -23.6875 C 23.203125 -23.0625 25.660156 -22.382812 27.609375 -21.65625 C 29.554688 -20.9375 31.242188 -19.785156 32.671875 -18.203125 C 34.097656 -16.628906 34.8125 -14.492188 34.8125 -11.796875 C 34.8125 -9.453125 34.160156 -7.332031 32.859375 -5.4375 C 31.566406 -3.550781 29.625 -2.039062 27.03125 -0.90625 C 24.4375 0.21875 21.285156 0.78125 17.578125 0.78125 Z M 17.578125 0.78125 "/></g></g></g><g fill="#ef8121" fill-opacity="0.4"><g transform="translate(37.056125, 54.971259)"><g><path d="M 40.921875 -38.921875 L 40.921875 0 L 29.921875 0 L 29.921875 -15.1875 L 14.90625 -15.1875 L 14.90625 0 L 3.890625 0 L 3.890625 -38.921875 L 14.90625 -38.921875 L 14.90625 -24.296875 L 29.921875 -24.296875 L 29.921875 -38.921875 Z M 40.921875 -38.921875 "/></g></g></g><g fill="#ef8121" fill-opacity="0.4"><g transform="translate(81.869439, 54.971259)"><g><path d="M 23.515625 0.78125 C 19.398438 0.78125 15.703125 -0.0859375 12.421875 -1.828125 C 9.140625 -3.578125 6.5625 -5.988281 4.6875 -9.0625 C 2.820312 -12.144531 1.890625 -15.613281 1.890625 -19.46875 C 1.890625 -23.320312 2.820312 -26.785156 4.6875 -29.859375 C 6.5625 -32.941406 9.140625 -35.351562 12.421875 -37.09375 C 15.703125 -38.832031 19.398438 -39.703125 23.515625 -39.703125 C 27.640625 -39.703125 31.335938 -38.832031 34.609375 -37.09375 C 37.890625 -35.351562 40.46875 -32.941406 42.34375 -29.859375 C 44.21875 -26.785156 45.15625 -23.320312 45.15625 -19.46875 C 45.15625 -15.613281 44.21875 -12.144531 42.34375 -9.0625 C 40.46875 -5.988281 37.890625 -3.578125 34.609375 -1.828125 C 31.335938 -0.0859375 27.640625 0.78125 23.515625 0.78125 Z M 23.515625 -8.34375 C 25.484375 -8.34375 27.265625 -8.804688 28.859375 -9.734375 C 30.453125 -10.660156 31.710938 -11.96875 32.640625 -13.65625 C 33.566406 -15.34375 34.03125 -17.28125 34.03125 -19.46875 C 34.03125 -21.65625 33.566406 -23.59375 32.640625 -25.28125 C 31.710938 -26.96875 30.453125 -28.269531 28.859375 -29.1875 C 27.265625 -30.113281 25.484375 -30.578125 23.515625 -30.578125 C 21.554688 -30.578125 19.78125 -30.113281 18.1875 -29.1875 C 16.59375 -28.269531 15.332031 -26.96875 14.40625 -25.28125 C 13.476562 -23.59375 13.015625 -21.65625 13.015625 -19.46875 C 13.015625 -17.28125 13.476562 -15.34375 14.40625 -13.65625 C 15.332031 -11.96875 16.59375 -10.660156 18.1875 -9.734375 C 19.78125 -8.804688 21.554688 -8.34375 23.515625 -8.34375 Z M 23.515625 -8.34375 "/></g></g></g><g fill="#ef8121" fill-opacity="0.4"><g transform="translate(128.906736, 54.971259)"><g><path d="M 21.6875 -38.921875 C 25.207031 -38.921875 28.265625 -38.335938 30.859375 -37.171875 C 33.453125 -36.003906 35.453125 -34.335938 36.859375 -32.171875 C 38.273438 -30.003906 38.984375 -27.457031 38.984375 -24.53125 C 38.984375 -21.59375 38.273438 -19.050781 36.859375 -16.90625 C 35.453125 -14.757812 33.453125 -13.097656 30.859375 -11.921875 C 28.265625 -10.753906 25.207031 -10.171875 21.6875 -10.171875 L 14.90625 -10.171875 L 14.90625 0 L 3.890625 0 L 3.890625 -38.921875 Z M 21.015625 -18.859375 C 23.273438 -18.859375 24.976562 -19.347656 26.125 -20.328125 C 27.28125 -21.304688 27.859375 -22.707031 27.859375 -24.53125 C 27.859375 -26.34375 27.28125 -27.75 26.125 -28.75 C 24.976562 -29.75 23.273438 -30.25 21.015625 -30.25 L 14.90625 -30.25 L 14.90625 -18.859375 Z M 21.015625 -18.859375 "/></g></g></g><g fill="#660066" fill-opacity="1"><g transform="translate(1.083156, 54.971259)"><g><path d="M 17.578125 0.78125 C 14.421875 0.78125 11.359375 0.390625 8.390625 -0.390625 C 5.429688 -1.171875 3.023438 -2.207031 1.171875 -3.5 L 4.78125 -11.625 C 6.519531 -10.476562 8.539062 -9.550781 10.84375 -8.84375 C 13.144531 -8.132812 15.40625 -7.78125 17.625 -7.78125 C 21.851562 -7.78125 23.96875 -8.835938 23.96875 -10.953125 C 23.96875 -12.066406 23.363281 -12.890625 22.15625 -13.421875 C 20.957031 -13.960938 19.019531 -14.53125 16.34375 -15.125 C 13.414062 -15.757812 10.96875 -16.4375 9 -17.15625 C 7.039062 -17.875 5.351562 -19.03125 3.9375 -20.625 C 2.53125 -22.21875 1.828125 -24.367188 1.828125 -27.078125 C 1.828125 -29.453125 2.476562 -31.59375 3.78125 -33.5 C 5.082031 -35.414062 7.019531 -36.925781 9.59375 -38.03125 C 12.164062 -39.144531 15.328125 -39.703125 19.078125 -39.703125 C 21.628906 -39.703125 24.144531 -39.414062 26.625 -38.84375 C 29.113281 -38.269531 31.304688 -37.425781 33.203125 -36.3125 L 29.8125 -28.140625 C 26.101562 -30.140625 22.503906 -31.140625 19.015625 -31.140625 C 16.828125 -31.140625 15.234375 -30.8125 14.234375 -30.15625 C 13.234375 -29.507812 12.734375 -28.671875 12.734375 -27.640625 C 12.734375 -26.597656 13.328125 -25.816406 14.515625 -25.296875 C 15.703125 -24.785156 17.609375 -24.25 20.234375 -23.6875 C 23.203125 -23.0625 25.660156 -22.382812 27.609375 -21.65625 C 29.554688 -20.9375 31.242188 -19.785156 32.671875 -18.203125 C 34.097656 -16.628906 34.8125 -14.492188 34.8125 -11.796875 C 34.8125 -9.453125 34.160156 -7.332031 32.859375 -5.4375 C 31.566406 -3.550781 29.625 -2.039062 27.03125 -0.90625 C 24.4375 0.21875 21.285156 0.78125 17.578125 0.78125 Z M 17.578125 0.78125 "/></g></g></g><g fill="#660066" fill-opacity="1"><g transform="translate(37.056125, 54.971259)"><g><path d="M 40.921875 -38.921875 L 40.921875 0 L 29.921875 0 L 29.921875 -15.1875 L 14.90625 -15.1875 L 14.90625 0 L 3.890625 0 L 3.890625 -38.921875 L 14.90625 -38.921875 L 14.90625 -24.296875 L 29.921875 -24.296875 L 29.921875 -38.921875 Z M 40.921875 -38.921875 "/></g></g></g><g fill="#660066" fill-opacity="1"><g transform="translate(81.869439, 54.971259)"><g><path d="M 23.515625 0.78125 C 19.398438 0.78125 15.703125 -0.0859375 12.421875 -1.828125 C 9.140625 -3.578125 6.5625 -5.988281 4.6875 -9.0625 C 2.820312 -12.144531 1.890625 -15.613281 1.890625 -19.46875 C 1.890625 -23.320312 2.820312 -26.785156 4.6875 -29.859375 C 6.5625 -32.941406 9.140625 -35.351562 12.421875 -37.09375 C 15.703125 -38.832031 19.398438 -39.703125 23.515625 -39.703125 C 27.640625 -39.703125 31.335938 -38.832031 34.609375 -37.09375 C 37.890625 -35.351562 40.46875 -32.941406 42.34375 -29.859375 C 44.21875 -26.785156 45.15625 -23.320312 45.15625 -19.46875 C 45.15625 -15.613281 44.21875 -12.144531 42.34375 -9.0625 C 40.46875 -5.988281 37.890625 -3.578125 34.609375 -1.828125 C 31.335938 -0.0859375 27.640625 0.78125 23.515625 0.78125 Z M 23.515625 -8.34375 C 25.484375 -8.34375 27.265625 -8.804688 28.859375 -9.734375 C 30.453125 -10.660156 31.710938 -11.96875 32.640625 -13.65625 C 33.566406 -15.34375 34.03125 -17.28125 34.03125 -19.46875 C 34.03125 -21.65625 33.566406 -23.59375 32.640625 -25.28125 C 31.710938 -26.96875 30.453125 -28.269531 28.859375 -29.1875 C 27.265625 -30.113281 25.484375 -30.578125 23.515625 -30.578125 C 21.554688 -30.578125 19.78125 -30.113281 18.1875 -29.1875 C 16.59375 -28.269531 15.332031 -26.96875 14.40625 -25.28125 C 13.476562 -23.59375 13.015625 -21.65625 13.015625 -19.46875 C 13.015625 -17.28125 13.476562 -15.34375 14.40625 -13.65625 C 15.332031 -11.96875 16.59375 -10.660156 18.1875 -9.734375 C 19.78125 -8.804688 21.554688 -8.34375 23.515625 -8.34375 Z M 23.515625 -8.34375 "/></g></g></g><g fill="#660066" fill-opacity="1"><g transform="translate(128.906736, 54.971259)"><g><path d="M 21.6875 -38.921875 C 25.207031 -38.921875 28.265625 -38.335938 30.859375 -37.171875 C 33.453125 -36.003906 35.453125 -34.335938 36.859375 -32.171875 C 38.273438 -30.003906 38.984375 -27.457031 38.984375 -24.53125 C 38.984375 -21.59375 38.273438 -19.050781 36.859375 -16.90625 C 35.453125 -14.757812 33.453125 -13.097656 30.859375 -11.921875 C 28.265625 -10.753906 25.207031 -10.171875 21.6875 -10.171875 L 14.90625 -10.171875 L 14.90625 0 L 3.890625 0 L 3.890625 -38.921875 Z M 21.015625 -18.859375 C 23.273438 -18.859375 24.976562 -19.347656 26.125 -20.328125 C 27.28125 -21.304688 27.859375 -22.707031 27.859375 -24.53125 C 27.859375 -26.34375 27.28125 -27.75 26.125 -28.75 C 24.976562 -29.75 23.273438 -30.25 21.015625 -30.25 L 14.90625 -30.25 L 14.90625 -18.859375 Z M 21.015625 -18.859375 "/></g></g></g></g></g><g transform="matrix(1, 0, 0, 1, 98, 229)"><g clip-path="url(#0f76c92e98)"><g fill="#660066" fill-opacity="1"><g transform="translate(1.102654, 74.405733)"><g><path d="M 55.625 -52.90625 L 55.625 0 L 43.3125 0 L 19.953125 -28.1875 L 19.953125 0 L 5.296875 0 L 5.296875 -52.90625 L 17.609375 -52.90625 L 40.96875 -24.71875 L 40.96875 -52.90625 Z M 55.625 -52.90625 "/></g></g></g><g fill="#660066" fill-opacity="1"><g transform="translate(57.552841, 74.405733)"><g><path d="M 40.734375 -10.28125 L 18.359375 -10.28125 L 14.203125 0 L -1.0625 0 L 22.296875 -52.90625 L 37.03125 -52.90625 L 60.46875 0 L 44.890625 0 Z M 36.359375 -21.3125 L 29.546875 -38.25 L 22.75 -21.3125 Z M 36.359375 -21.3125 "/></g></g></g><g fill="#660066" fill-opacity="1"><g transform="translate(112.491626, 74.405733)"><g><path d="M 31.96875 1.0625 C 26.375 1.0625 21.347656 -0.117188 16.890625 -2.484375 C 12.429688 -4.859375 8.925781 -8.132812 6.375 -12.3125 C 3.832031 -16.5 2.5625 -21.210938 2.5625 -26.453125 C 2.5625 -31.691406 3.832031 -36.398438 6.375 -40.578125 C 8.925781 -44.765625 12.429688 -48.039062 16.890625 -50.40625 C 21.347656 -52.78125 26.375 -53.96875 31.96875 -53.96875 C 37.5625 -53.96875 42.585938 -52.78125 47.046875 -50.40625 C 51.503906 -48.039062 55.003906 -44.765625 57.546875 -40.578125 C 60.097656 -36.398438 61.375 -31.691406 61.375 -26.453125 C 61.375 -21.210938 60.097656 -16.5 57.546875 -12.3125 C 55.003906 -8.132812 51.503906 -4.859375 47.046875 -2.484375 C 42.585938 -0.117188 37.5625 1.0625 31.96875 1.0625 Z M 31.96875 -11.34375 C 34.632812 -11.34375 37.050781 -11.96875 39.21875 -13.21875 C 41.382812 -14.476562 43.097656 -16.253906 44.359375 -18.546875 C 45.617188 -20.847656 46.25 -23.484375 46.25 -26.453125 C 46.25 -29.421875 45.617188 -32.050781 44.359375 -34.34375 C 43.097656 -36.644531 41.382812 -38.421875 39.21875 -39.671875 C 37.050781 -40.929688 34.632812 -41.5625 31.96875 -41.5625 C 29.300781 -41.5625 26.882812 -40.929688 24.71875 -39.671875 C 22.550781 -38.421875 20.835938 -36.644531 19.578125 -34.34375 C 18.316406 -32.050781 17.6875 -29.421875 17.6875 -26.453125 C 17.6875 -23.484375 18.316406 -20.847656 19.578125 -18.546875 C 20.835938 -16.253906 22.550781 -14.476562 24.71875 -13.21875 C 26.882812 -11.96875 29.300781 -11.34375 31.96875 -11.34375 Z M 31.96875 -11.34375 "/></g></g></g></g></g><g transform="matrix(1, 0, 0, 1, 101, 310)"><g clip-path="url(#a0c0c4349e)"><g fill="#424141" fill-opacity="1"><g transform="translate(0.908369, 17.471579)"><g><path d="M 7.40625 0.140625 C 6.15625 0.140625 5.03125 -0.128906 4.03125 -0.671875 C 3.039062 -1.222656 2.257812 -1.976562 1.6875 -2.9375 C 1.125 -3.894531 0.84375 -4.96875 0.84375 -6.15625 C 0.84375 -7.332031 1.125 -8.398438 1.6875 -9.359375 C 2.257812 -10.328125 3.039062 -11.082031 4.03125 -11.625 C 5.03125 -12.175781 6.15625 -12.453125 7.40625 -12.453125 C 8.632812 -12.453125 9.742188 -12.175781 10.734375 -11.625 C 11.734375 -11.082031 12.515625 -10.332031 13.078125 -9.375 C 13.640625 -8.425781 13.921875 -7.351562 13.921875 -6.15625 C 13.921875 -4.957031 13.640625 -3.878906 13.078125 -2.921875 C 12.515625 -1.972656 11.734375 -1.222656 10.734375 -0.671875 C 9.742188 -0.128906 8.632812 0.140625 7.40625 0.140625 Z M 7.40625 -1.421875 C 8.300781 -1.421875 9.109375 -1.625 9.828125 -2.03125 C 10.554688 -2.445312 11.128906 -3.015625 11.546875 -3.734375 C 11.960938 -4.453125 12.171875 -5.257812 12.171875 -6.15625 C 12.171875 -7.039062 11.960938 -7.84375 11.546875 -8.5625 C 11.128906 -9.289062 10.554688 -9.859375 9.828125 -10.265625 C 9.109375 -10.671875 8.300781 -10.875 7.40625 -10.875 C 6.5 -10.875 5.675781 -10.671875 4.9375 -10.265625 C 4.207031 -9.859375 3.632812 -9.289062 3.21875 -8.5625 C 2.8125 -7.84375 2.609375 -7.039062 2.609375 -6.15625 C 2.609375 -5.257812 2.8125 -4.453125 3.21875 -3.734375 C 3.632812 -3.015625 4.207031 -2.445312 4.9375 -2.03125 C 5.675781 -1.625 6.5 -1.421875 7.40625 -1.421875 Z M 7.40625 -1.421875 "/></g></g></g><g fill="#424141" fill-opacity="1"><g transform="translate(18.018474, 17.471579)"><g><path d="M 12.421875 -12.3125 L 12.421875 0 L 10.984375 0 L 3.609375 -9.171875 L 3.609375 0 L 1.84375 0 L 1.84375 -12.3125 L 3.28125 -12.3125 L 10.671875 -3.125 L 10.671875 -12.3125 Z M 12.421875 -12.3125 "/></g></g></g><g fill="#424141" fill-opacity="1"><g transform="translate(34.636739, 17.471579)"><g><path d="M 1.84375 -12.3125 L 3.609375 -12.3125 L 3.609375 -1.53125 L 10.265625 -1.53125 L 10.265625 0 L 1.84375 0 Z M 1.84375 -12.3125 "/></g></g></g><g fill="#424141" fill-opacity="1"><g transform="translate(47.425767, 17.471579)"><g><path d="M 6.5625 -4.25 L 6.5625 0 L 4.8125 0 L 4.8125 -4.296875 L -0.078125 -12.3125 L 1.8125 -12.3125 L 5.75 -5.8125 L 9.703125 -12.3125 L 11.4375 -12.3125 Z M 6.5625 -4.25 "/></g></g></g><g fill="#424141" fill-opacity="1"><g transform="translate(61.145763, 17.471579)"><g/></g></g><g fill="#424141" fill-opacity="1"><g transform="translate(68.226056, 17.471579)"><g><path d="M 4.296875 -10.78125 L 0.078125 -10.78125 L 0.078125 -12.3125 L 10.25 -12.3125 L 10.25 -10.78125 L 6.03125 -10.78125 L 6.03125 0 L 4.296875 0 Z M 4.296875 -10.78125 "/></g></g></g><g fill="#424141" fill-opacity="1"><g transform="translate(80.892122, 17.471579)"><g><path d="M 12.421875 -12.3125 L 12.421875 0 L 10.671875 0 L 10.671875 -5.484375 L 3.609375 -5.484375 L 3.609375 0 L 1.84375 0 L 1.84375 -12.3125 L 3.609375 -12.3125 L 3.609375 -7.015625 L 10.671875 -7.015625 L 10.671875 -12.3125 Z M 12.421875 -12.3125 "/></g></g></g><g fill="#424141" fill-opacity="1"><g transform="translate(97.510387, 17.471579)"><g><path d="M 10.78125 -1.53125 L 10.78125 0 L 1.84375 0 L 1.84375 -12.3125 L 10.53125 -12.3125 L 10.53125 -10.78125 L 3.609375 -10.78125 L 3.609375 -7 L 9.78125 -7 L 9.78125 -5.5 L 3.609375 -5.5 L 3.609375 -1.53125 Z M 10.78125 -1.53125 "/></g></g></g><g fill="#424141" fill-opacity="1"><g transform="translate(111.634377, 17.471579)"><g/></g></g><g fill="#424141" fill-opacity="1"><g transform="translate(118.71467, 17.471579)"><g><path d="M 10.125 -6.375 C 10.84375 -6.175781 11.40625 -5.816406 11.8125 -5.296875 C 12.21875 -4.773438 12.421875 -4.117188 12.421875 -3.328125 C 12.421875 -2.253906 12.019531 -1.429688 11.21875 -0.859375 C 10.414062 -0.285156 9.25 0 7.71875 0 L 1.84375 0 L 1.84375 -12.3125 L 7.359375 -12.3125 C 8.765625 -12.3125 9.851562 -12.03125 10.625 -11.46875 C 11.394531 -10.90625 11.78125 -10.125 11.78125 -9.125 C 11.78125 -8.476562 11.628906 -7.921875 11.328125 -7.453125 C 11.023438 -6.984375 10.625 -6.625 10.125 -6.375 Z M 3.609375 -10.875 L 3.609375 -6.9375 L 7.203125 -6.9375 C 8.109375 -6.9375 8.800781 -7.101562 9.28125 -7.4375 C 9.769531 -7.78125 10.015625 -8.269531 10.015625 -8.90625 C 10.015625 -9.550781 9.769531 -10.039062 9.28125 -10.375 C 8.800781 -10.707031 8.109375 -10.875 7.203125 -10.875 Z M 7.640625 -1.421875 C 8.640625 -1.421875 9.390625 -1.582031 9.890625 -1.90625 C 10.398438 -2.238281 10.65625 -2.757812 10.65625 -3.46875 C 10.65625 -4.832031 9.648438 -5.515625 7.640625 -5.515625 L 3.609375 -5.515625 L 3.609375 -1.421875 Z M 7.640625 -1.421875 "/></g></g></g><g fill="#424141" fill-opacity="1"><g transform="translate(134.36685, 17.471579)"><g><path d="M 10.78125 -1.53125 L 10.78125 0 L 1.84375 0 L 1.84375 -12.3125 L 10.53125 -12.3125 L 10.53125 -10.78125 L 3.609375 -10.78125 L 3.609375 -7 L 9.78125 -7 L 9.78125 -5.5 L 3.609375 -5.5 L 3.609375 -1.53125 Z M 10.78125 -1.53125 "/></g></g></g><g fill="#424141" fill-opacity="1"><g transform="translate(148.49084, 17.471579)"><g><path d="M 5.4375 0.140625 C 4.507812 0.140625 3.613281 0 2.75 -0.28125 C 1.882812 -0.570312 1.207031 -0.945312 0.71875 -1.40625 L 1.375 -2.78125 C 1.84375 -2.351562 2.441406 -2.007812 3.171875 -1.75 C 3.898438 -1.488281 4.65625 -1.359375 5.4375 -1.359375 C 6.457031 -1.359375 7.21875 -1.53125 7.71875 -1.875 C 8.21875 -2.21875 8.46875 -2.675781 8.46875 -3.25 C 8.46875 -3.675781 8.328125 -4.019531 8.046875 -4.28125 C 7.773438 -4.539062 7.4375 -4.738281 7.03125 -4.875 C 6.632812 -5.019531 6.066406 -5.179688 5.328125 -5.359375 C 4.398438 -5.585938 3.648438 -5.8125 3.078125 -6.03125 C 2.515625 -6.25 2.03125 -6.585938 1.625 -7.046875 C 1.21875 -7.515625 1.015625 -8.144531 1.015625 -8.9375 C 1.015625 -9.59375 1.1875 -10.179688 1.53125 -10.703125 C 1.882812 -11.234375 2.410156 -11.65625 3.109375 -11.96875 C 3.816406 -12.289062 4.691406 -12.453125 5.734375 -12.453125 C 6.460938 -12.453125 7.175781 -12.359375 7.875 -12.171875 C 8.582031 -11.984375 9.1875 -11.710938 9.6875 -11.359375 L 9.109375 -9.953125 C 8.585938 -10.273438 8.035156 -10.519531 7.453125 -10.6875 C 6.867188 -10.863281 6.296875 -10.953125 5.734375 -10.953125 C 4.734375 -10.953125 3.984375 -10.769531 3.484375 -10.40625 C 2.992188 -10.039062 2.75 -9.570312 2.75 -9 C 2.75 -8.582031 2.890625 -8.238281 3.171875 -7.96875 C 3.453125 -7.707031 3.796875 -7.503906 4.203125 -7.359375 C 4.617188 -7.210938 5.1875 -7.054688 5.90625 -6.890625 C 6.832031 -6.671875 7.578125 -6.445312 8.140625 -6.21875 C 8.703125 -6 9.1875 -5.660156 9.59375 -5.203125 C 10 -4.742188 10.203125 -4.128906 10.203125 -3.359375 C 10.203125 -2.710938 10.023438 -2.125 9.671875 -1.59375 C 9.316406 -1.0625 8.78125 -0.640625 8.0625 -0.328125 C 7.351562 -0.015625 6.476562 0.140625 5.4375 0.140625 Z M 5.4375 0.140625 "/></g></g></g><g fill="#424141" fill-opacity="1"><g transform="translate(161.754129, 17.471579)"><g><path d="M 4.296875 -10.78125 L 0.078125 -10.78125 L 0.078125 -12.3125 L 10.25 -12.3125 L 10.25 -10.78125 L 6.03125 -10.78125 L 6.03125 0 L 4.296875 0 Z M 4.296875 -10.78125 "/></g></g></g></g></g></svg>