<svg xmlns="http://www.w3.org/2000/svg" xmlns:xlink="http://www.w3.org/1999/xlink" width="192" zoomAndPan="magnify" viewBox="0 0 144 143.999998" height="192" preserveAspectRatio="xMidYMid meet" version="1.0"><defs><g/><clipPath id="7064ceeb5d"><path d="M 7.054688 7.054688 L 136.804688 7.054688 L 136.804688 136.804688 L 7.054688 136.804688 Z M 7.054688 7.054688 " clip-rule="nonzero"/></clipPath><clipPath id="ec4a964ac3"><path d="M 33 14.398438 L 111 14.398438 L 111 106.648438 L 33 106.648438 Z M 33 14.398438 " clip-rule="nonzero"/></clipPath><clipPath id="90c43fdd83"><rect x="0" width="67" y="0" height="28"/></clipPath><clipPath id="dbf8140858"><path d="M 97 47 L 114 47 L 114 69 L 97 69 Z M 97 47 " clip-rule="nonzero"/></clipPath><clipPath id="e0ad943ab8"><path d="M 95.410156 44.773438 L 111.65625 41.886719 L 116.371094 68.472656 L 100.125 71.355469 Z M 95.410156 44.773438 " clip-rule="nonzero"/></clipPath><clipPath id="e711d268d8"><path d="M 95.410156 44.773438 L 111.65625 41.886719 L 116.371094 68.472656 L 100.125 71.355469 Z M 95.410156 44.773438 " clip-rule="nonzero"/></clipPath><clipPath id="47a997fc07"><path d="M 95 44 L 115 44 L 115 70 L 95 70 Z M 95 44 " clip-rule="nonzero"/></clipPath><clipPath id="b969edacb1"><path d="M 95.410156 44.773438 L 111.65625 41.886719 L 116.371094 68.472656 L 100.125 71.355469 Z M 95.410156 44.773438 " clip-rule="nonzero"/></clipPath><clipPath id="9bcf1fc68d"><path d="M 95.410156 44.773438 L 111.65625 41.886719 L 116.371094 68.472656 L 100.125 71.355469 Z M 95.410156 44.773438 " clip-rule="nonzero"/></clipPath><clipPath id="99fb562c55"><rect x="0" width="69" y="0" height="37"/></clipPath><clipPath id="0a3d014d46"><rect x="0" width="69" y="0" height="9"/></clipPath></defs><g clip-path="url(#7064ceeb5d)"><path fill="#ffffff" d="M 71.996094 7.054688 C 73.058594 7.054688 74.121094 7.082031 75.179688 7.132812 C 76.242188 7.183594 77.300781 7.261719 78.359375 7.367188 C 79.417969 7.472656 80.472656 7.601562 81.523438 7.757812 C 82.574219 7.914062 83.621094 8.09375 84.664062 8.304688 C 85.707031 8.511719 86.742188 8.742188 87.773438 9 C 88.804688 9.257812 89.828125 9.542969 90.84375 9.851562 C 91.863281 10.160156 92.871094 10.492188 93.871094 10.851562 C 94.871094 11.210938 95.863281 11.589844 96.84375 12 C 97.828125 12.40625 98.800781 12.835938 99.757812 13.289062 C 100.71875 13.746094 101.667969 14.222656 102.605469 14.722656 C 103.542969 15.222656 104.46875 15.746094 105.378906 16.292969 C 106.292969 16.839844 107.1875 17.410156 108.074219 18 C 108.957031 18.589844 109.824219 19.203125 110.679688 19.835938 C 111.53125 20.46875 112.371094 21.121094 113.191406 21.796875 C 114.011719 22.46875 114.816406 23.164062 115.605469 23.878906 C 116.390625 24.589844 117.160156 25.324219 117.914062 26.074219 C 118.664062 26.828125 119.398438 27.597656 120.113281 28.382812 C 120.824219 29.171875 121.519531 29.976562 122.191406 30.796875 C 122.867188 31.617188 123.519531 32.457031 124.152344 33.308594 C 124.789062 34.164062 125.398438 35.03125 125.988281 35.914062 C 126.578125 36.800781 127.148438 37.699219 127.695312 38.609375 C 128.242188 39.519531 128.765625 40.445312 129.265625 41.382812 C 129.765625 42.320312 130.246094 43.269531 130.699219 44.230469 C 131.152344 45.191406 131.582031 46.160156 131.992188 47.144531 C 132.398438 48.125 132.78125 49.117188 133.136719 50.117188 C 133.496094 51.117188 133.828125 52.125 134.136719 53.144531 C 134.445312 54.160156 134.730469 55.183594 134.988281 56.214844 C 135.246094 57.246094 135.480469 58.28125 135.6875 59.324219 C 135.894531 60.367188 136.074219 61.414062 136.230469 62.464844 C 136.386719 63.515625 136.515625 64.570312 136.621094 65.628906 C 136.726562 66.6875 136.804688 67.746094 136.855469 68.808594 C 136.90625 69.871094 136.933594 70.933594 136.933594 71.996094 C 136.933594 73.058594 136.90625 74.121094 136.855469 75.179688 C 136.804688 76.242188 136.726562 77.300781 136.621094 78.359375 C 136.515625 79.417969 136.386719 80.472656 136.230469 81.523438 C 136.074219 82.574219 135.894531 83.621094 135.6875 84.664062 C 135.480469 85.707031 135.246094 86.742188 134.988281 87.773438 C 134.730469 88.804688 134.445312 89.828125 134.136719 90.84375 C 133.828125 91.863281 133.496094 92.871094 133.136719 93.871094 C 132.78125 94.871094 132.398438 95.863281 131.992188 96.84375 C 131.582031 97.828125 131.152344 98.800781 130.699219 99.757812 C 130.246094 100.71875 129.765625 101.667969 129.265625 102.605469 C 128.765625 103.542969 128.242188 104.46875 127.695312 105.378906 C 127.148438 106.292969 126.578125 107.1875 125.988281 108.074219 C 125.398438 108.957031 124.789062 109.824219 124.152344 110.679688 C 123.519531 111.53125 122.867188 112.371094 122.191406 113.191406 C 121.519531 114.011719 120.824219 114.816406 120.113281 115.605469 C 119.398438 116.390625 118.664062 117.160156 117.914062 117.914062 C 117.160156 118.664062 116.390625 119.398438 115.605469 120.113281 C 114.816406 120.824219 114.011719 121.519531 113.191406 122.191406 C 112.371094 122.867188 111.53125 123.519531 110.679688 124.152344 C 109.824219 124.789062 108.957031 125.398438 108.074219 125.988281 C 107.1875 126.578125 106.292969 127.148438 105.378906 127.695312 C 104.46875 128.242188 103.542969 128.765625 102.605469 129.265625 C 101.667969 129.765625 100.71875 130.246094 99.757812 130.699219 C 98.800781 131.152344 97.828125 131.582031 96.84375 131.992188 C 95.863281 132.398438 94.871094 132.78125 93.871094 133.136719 C 92.871094 133.496094 91.863281 133.828125 90.84375 134.136719 C 89.828125 134.445312 88.804688 134.730469 87.773438 134.988281 C 86.742188 135.246094 85.707031 135.480469 84.664062 135.6875 C 83.621094 135.894531 82.574219 136.074219 81.523438 136.230469 C 80.472656 136.386719 79.417969 136.515625 78.359375 136.621094 C 77.300781 136.726562 76.242188 136.804688 75.179688 136.855469 C 74.121094 136.90625 73.058594 136.933594 71.996094 136.933594 C 70.933594 136.933594 69.871094 136.90625 68.808594 136.855469 C 67.746094 136.804688 66.6875 136.726562 65.628906 136.621094 C 64.570312 136.515625 63.515625 136.386719 62.464844 136.230469 C 61.414062 136.074219 60.367188 135.894531 59.324219 135.6875 C 58.28125 135.480469 57.246094 135.246094 56.214844 134.988281 C 55.183594 134.730469 54.160156 134.445312 53.144531 134.136719 C 52.125 133.828125 51.117188 133.496094 50.117188 133.136719 C 49.117188 132.78125 48.125 132.398438 47.144531 131.992188 C 46.160156 131.582031 45.191406 131.152344 44.230469 130.699219 C 43.269531 130.246094 42.320312 129.765625 41.382812 129.265625 C 40.445312 128.765625 39.519531 128.242188 38.609375 127.695312 C 37.699219 127.148438 36.800781 126.578125 35.914062 125.988281 C 35.03125 125.398438 34.164062 124.789062 33.308594 124.152344 C 32.457031 123.519531 31.617188 122.867188 30.796875 122.191406 C 29.976562 121.519531 29.171875 120.824219 28.382812 120.113281 C 27.597656 119.398438 26.828125 118.664062 26.074219 117.914062 C 25.324219 117.160156 24.589844 116.390625 23.878906 115.605469 C 23.164062 114.816406 22.46875 114.011719 21.796875 113.191406 C 21.121094 112.371094 20.46875 111.53125 19.835938 110.679688 C 19.203125 109.824219 18.589844 108.957031 18 108.074219 C 17.410156 107.1875 16.839844 106.292969 16.292969 105.378906 C 15.746094 104.46875 15.222656 103.542969 14.722656 102.605469 C 14.222656 101.667969 13.746094 100.71875 13.289062 99.757812 C 12.835938 98.800781 12.40625 97.828125 12 96.84375 C 11.589844 95.863281 11.210938 94.871094 10.851562 93.871094 C 10.492188 92.871094 10.160156 91.863281 9.851562 90.84375 C 9.542969 89.828125 9.257812 88.804688 9 87.773438 C 8.742188 86.742188 8.511719 85.707031 8.304688 84.664062 C 8.09375 83.621094 7.914062 82.574219 7.757812 81.523438 C 7.601562 80.472656 7.472656 79.417969 7.367188 78.359375 C 7.261719 77.300781 7.183594 76.242188 7.132812 75.179688 C 7.082031 74.121094 7.054688 73.058594 7.054688 71.996094 C 7.054688 70.933594 7.082031 69.871094 7.132812 68.808594 C 7.183594 67.746094 7.261719 66.6875 7.367188 65.628906 C 7.472656 64.570312 7.601562 63.515625 7.757812 62.464844 C 7.914062 61.414062 8.09375 60.367188 8.304688 59.324219 C 8.511719 58.28125 8.742188 57.246094 9 56.214844 C 9.257812 55.183594 9.542969 54.160156 9.851562 53.144531 C 10.160156 52.125 10.492188 51.117188 10.851562 50.117188 C 11.210938 49.117188 11.589844 48.125 12 47.144531 C 12.40625 46.160156 12.835938 45.191406 13.289062 44.230469 C 13.746094 43.269531 14.222656 42.320312 14.722656 41.382812 C 15.222656 40.445312 15.746094 39.519531 16.292969 38.609375 C 16.839844 37.699219 17.410156 36.800781 18 35.914062 C 18.589844 35.03125 19.203125 34.164062 19.835938 33.308594 C 20.46875 32.457031 21.121094 31.617188 21.796875 30.796875 C 22.46875 29.976562 23.164062 29.171875 23.878906 28.382812 C 24.589844 27.597656 25.324219 26.828125 26.074219 26.074219 C 26.828125 25.324219 27.597656 24.589844 28.382812 23.878906 C 29.171875 23.164062 29.976562 22.46875 30.796875 21.796875 C 31.617188 21.121094 32.457031 20.46875 33.308594 19.835938 C 34.164062 19.203125 35.03125 18.589844 35.914062 18 C 36.800781 17.410156 37.699219 16.839844 38.609375 16.292969 C 39.519531 15.746094 40.445312 15.222656 41.382812 14.722656 C 42.320312 14.222656 43.269531 13.746094 44.230469 13.289062 C 45.191406 12.835938 46.160156 12.40625 47.144531 12 C 48.125 11.589844 49.117188 11.210938 50.117188 10.851562 C 51.117188 10.492188 52.125 10.160156 53.144531 9.851562 C 54.160156 9.542969 55.183594 9.257812 56.214844 9 C 57.246094 8.742188 58.28125 8.511719 59.324219 8.304688 C 60.367188 8.09375 61.414062 7.914062 62.464844 7.757812 C 63.515625 7.601562 64.570312 7.472656 65.628906 7.367188 C 66.6875 7.261719 67.746094 7.183594 68.808594 7.132812 C 69.871094 7.082031 70.933594 7.054688 71.996094 7.054688 Z M 71.996094 7.054688 " fill-opacity="1" fill-rule="evenodd"/></g><g clip-path="url(#ec4a964ac3)"><path fill="#ffc72c" d="M 71.90625 14.539062 C 69.984375 14.542969 68.078125 14.6875 66.179688 14.972656 C 64.28125 15.261719 62.414062 15.6875 60.582031 16.257812 C 58.75 16.824219 56.96875 17.523438 55.238281 18.359375 C 53.507812 19.191406 51.851562 20.148438 50.265625 21.234375 C 48.683594 22.316406 47.1875 23.507812 45.78125 24.816406 C 44.375 26.121094 43.074219 27.527344 41.878906 29.027344 C 40.679688 30.53125 39.605469 32.113281 38.644531 33.773438 C 37.6875 35.4375 36.859375 37.164062 36.15625 38.949219 C 35.457031 40.738281 34.894531 42.566406 34.46875 44.4375 C 34.042969 46.308594 33.757812 48.203125 33.617188 50.117188 C 33.472656 52.03125 33.472656 53.945312 33.617188 55.859375 C 33.761719 57.773438 34.050781 59.667969 34.476562 61.539062 C 34.90625 63.410156 35.46875 65.238281 36.171875 67.023438 C 36.875 68.808594 37.707031 70.535156 38.667969 72.195312 C 39.625 73.859375 40.707031 75.4375 41.902344 76.9375 C 43.101562 78.441406 44.402344 79.84375 45.8125 81.148438 L 70.589844 105.945312 C 70.960938 106.285156 71.398438 106.460938 71.902344 106.46875 C 72.429688 106.460938 72.898438 106.285156 73.304688 105.945312 L 97.695312 81.457031 C 99.128906 80.164062 100.460938 78.769531 101.683594 77.277344 C 102.910156 75.78125 104.015625 74.203125 105 72.542969 C 105.988281 70.882812 106.84375 69.15625 107.570312 67.367188 C 108.296875 65.578125 108.886719 63.742188 109.335938 61.863281 C 109.785156 59.984375 110.089844 58.085938 110.253906 56.160156 C 110.414062 54.234375 110.429688 52.308594 110.304688 50.378906 C 110.175781 48.453125 109.902344 46.546875 109.484375 44.660156 C 109.070312 42.773438 108.515625 40.929688 107.820312 39.125 C 107.125 37.324219 106.300781 35.582031 105.339844 33.90625 C 104.382812 32.226562 103.304688 30.632812 102.109375 29.117188 C 100.910156 27.601562 99.605469 26.183594 98.191406 24.867188 C 96.78125 23.546875 95.277344 22.34375 93.683594 21.253906 C 92.089844 20.160156 90.421875 19.195312 88.683594 18.355469 C 86.941406 17.515625 85.148438 16.8125 83.304688 16.242188 C 81.457031 15.675781 79.578125 15.246094 77.667969 14.960938 C 75.757812 14.675781 73.835938 14.535156 71.90625 14.539062 Z M 63.097656 76.832031 C 62.769531 76.828125 62.445312 76.792969 62.125 76.722656 C 61.800781 76.65625 61.492188 76.554688 61.1875 76.425781 C 60.886719 76.296875 60.601562 76.140625 60.328125 75.953125 C 60.058594 75.769531 59.808594 75.558594 59.578125 75.324219 C 59.347656 75.089844 59.144531 74.832031 58.964844 74.558594 C 58.785156 74.28125 58.632812 73.992188 58.511719 73.6875 C 58.386719 73.382812 58.296875 73.070312 58.234375 72.746094 C 58.175781 72.421875 58.144531 72.097656 58.148438 71.769531 C 58.152344 71.441406 58.1875 71.113281 58.253906 70.792969 C 58.320312 70.472656 58.417969 70.160156 58.546875 69.855469 C 58.675781 69.554688 58.832031 69.265625 59.015625 68.996094 C 59.199219 68.722656 59.410156 68.472656 59.644531 68.242188 C 59.878906 68.011719 60.132812 67.804688 60.40625 67.625 C 60.679688 67.445312 60.96875 67.292969 61.273438 67.167969 C 61.578125 67.042969 61.890625 66.949219 62.214844 66.886719 C 62.539062 66.824219 62.863281 66.796875 63.191406 66.796875 C 63.519531 66.800781 63.84375 66.832031 64.167969 66.898438 C 64.488281 66.964844 64.800781 67.058594 65.105469 67.1875 C 65.40625 67.3125 65.695312 67.46875 65.96875 67.652344 C 66.242188 67.835938 66.492188 68.042969 66.726562 68.277344 C 66.957031 68.511719 67.164062 68.761719 67.34375 69.039062 C 67.527344 69.3125 67.679688 69.597656 67.804688 69.902344 C 67.929688 70.207031 68.023438 70.519531 68.089844 70.84375 C 68.152344 71.164062 68.183594 71.492188 68.183594 71.820312 C 68.179688 72.152344 68.144531 72.476562 68.078125 72.804688 C 68.011719 73.128906 67.914062 73.441406 67.785156 73.746094 C 67.65625 74.054688 67.496094 74.34375 67.3125 74.617188 C 67.125 74.890625 66.914062 75.144531 66.679688 75.378906 C 66.441406 75.609375 66.183594 75.816406 65.910156 76 C 65.632812 76.183594 65.339844 76.335938 65.03125 76.460938 C 64.726562 76.585938 64.410156 76.679688 64.082031 76.742188 C 63.757812 76.804688 63.429688 76.835938 63.097656 76.832031 Z M 80.292969 76.832031 C 79.964844 76.832031 79.636719 76.800781 79.3125 76.738281 C 78.988281 76.671875 78.675781 76.578125 78.371094 76.453125 C 78.066406 76.328125 77.777344 76.171875 77.503906 75.988281 C 77.230469 75.804688 76.976562 75.597656 76.742188 75.363281 C 76.507812 75.132812 76.300781 74.878906 76.117188 74.605469 C 75.933594 74.332031 75.78125 74.042969 75.652344 73.738281 C 75.527344 73.433594 75.433594 73.117188 75.367188 72.796875 C 75.304688 72.472656 75.269531 72.144531 75.269531 71.816406 C 75.269531 71.488281 75.300781 71.160156 75.367188 70.835938 C 75.429688 70.511719 75.527344 70.199219 75.652344 69.894531 C 75.777344 69.589844 75.933594 69.300781 76.117188 69.027344 C 76.300781 68.753906 76.507812 68.5 76.738281 68.265625 C 76.972656 68.035156 77.226562 67.824219 77.5 67.640625 C 77.773438 67.460938 78.0625 67.304688 78.367188 67.179688 C 78.671875 67.050781 78.988281 66.957031 79.3125 66.894531 C 79.632812 66.828125 79.960938 66.796875 80.289062 66.796875 C 80.621094 66.796875 80.945312 66.828125 81.269531 66.894531 C 81.59375 66.957031 81.90625 67.054688 82.210938 67.179688 C 82.515625 67.304688 82.804688 67.460938 83.078125 67.644531 C 83.351562 67.828125 83.605469 68.035156 83.839844 68.269531 C 84.070312 68.5 84.28125 68.753906 84.460938 69.03125 C 84.644531 69.304688 84.800781 69.59375 84.925781 69.898438 C 85.050781 70.203125 85.148438 70.515625 85.210938 70.839844 C 85.273438 71.164062 85.308594 71.488281 85.304688 71.820312 C 85.304688 72.148438 85.269531 72.472656 85.207031 72.792969 C 85.140625 73.117188 85.042969 73.429688 84.917969 73.730469 C 84.789062 74.035156 84.636719 74.324219 84.453125 74.597656 C 84.269531 74.871094 84.0625 75.121094 83.832031 75.355469 C 83.597656 75.585938 83.347656 75.792969 83.074219 75.976562 C 82.800781 76.160156 82.511719 76.316406 82.210938 76.441406 C 81.90625 76.570312 81.59375 76.664062 81.273438 76.730469 C 80.949219 76.796875 80.625 76.832031 80.296875 76.832031 Z M 88.597656 46.980469 L 84.683594 61.648438 C 84.546875 62.125 84.339844 62.570312 84.058594 62.984375 C 83.777344 63.394531 83.441406 63.753906 83.046875 64.054688 C 82.648438 64.359375 82.21875 64.59375 81.746094 64.753906 C 81.273438 64.917969 80.789062 65.003906 80.292969 65.007812 L 63.097656 65.007812 C 62.601562 65.011719 62.117188 64.933594 61.644531 64.773438 C 61.175781 64.617188 60.742188 64.382812 60.347656 64.082031 C 59.953125 63.777344 59.617188 63.417969 59.34375 63.003906 C 59.070312 62.589844 58.871094 62.140625 58.746094 61.660156 L 54.730469 46.980469 C 54.738281 46.949219 54.738281 46.917969 54.730469 46.890625 L 52.976562 40.398438 L 50.300781 40.398438 C 50.050781 40.386719 49.816406 40.328125 49.589844 40.226562 C 49.363281 40.121094 49.164062 39.980469 48.996094 39.800781 C 48.824219 39.621094 48.691406 39.417969 48.597656 39.1875 C 48.507812 38.957031 48.460938 38.71875 48.460938 38.472656 C 48.460938 38.222656 48.507812 37.984375 48.597656 37.753906 C 48.691406 37.523438 48.824219 37.320312 48.996094 37.140625 C 49.164062 36.960938 49.363281 36.820312 49.589844 36.714844 C 49.816406 36.613281 50.050781 36.554688 50.300781 36.542969 L 54.457031 36.542969 C 54.664062 36.535156 54.867188 36.5625 55.0625 36.625 C 55.261719 36.6875 55.441406 36.785156 55.605469 36.910156 C 55.773438 37.035156 55.910156 37.183594 56.023438 37.359375 C 56.136719 37.53125 56.214844 37.71875 56.261719 37.921875 L 58.042969 44.597656 L 86.75 44.597656 C 87.046875 44.578125 87.328125 44.632812 87.59375 44.765625 C 87.859375 44.894531 88.074219 45.085938 88.238281 45.332031 C 88.4375 45.554688 88.570312 45.8125 88.636719 46.105469 C 88.703125 46.402344 88.691406 46.691406 88.605469 46.980469 Z M 88.597656 46.980469 " fill-opacity="1" fill-rule="nonzero"/></g><g transform="matrix(1, 0, 0, 1, 40, 70)"><g clip-path="url(#90c43fdd83)"><g fill="#ef8121" fill-opacity="0.4"><g transform="translate(1.119929, 21.764971)"><g><path d="M 6.75 0.296875 C 5.539062 0.296875 4.363281 0.148438 3.21875 -0.140625 C 2.082031 -0.441406 1.160156 -0.84375 0.453125 -1.34375 L 1.84375 -4.46875 C 2.507812 -4.019531 3.28125 -3.660156 4.15625 -3.390625 C 5.039062 -3.117188 5.910156 -2.984375 6.765625 -2.984375 C 8.390625 -2.984375 9.203125 -3.390625 9.203125 -4.203125 C 9.203125 -4.628906 8.96875 -4.945312 8.5 -5.15625 C 8.039062 -5.363281 7.300781 -5.582031 6.28125 -5.8125 C 5.15625 -6.050781 4.210938 -6.304688 3.453125 -6.578125 C 2.703125 -6.859375 2.054688 -7.304688 1.515625 -7.921875 C 0.972656 -8.535156 0.703125 -9.363281 0.703125 -10.40625 C 0.703125 -11.3125 0.953125 -12.128906 1.453125 -12.859375 C 1.953125 -13.597656 2.695312 -14.179688 3.6875 -14.609375 C 4.675781 -15.035156 5.890625 -15.25 7.328125 -15.25 C 8.304688 -15.25 9.269531 -15.140625 10.21875 -14.921875 C 11.175781 -14.703125 12.019531 -14.378906 12.75 -13.953125 L 11.453125 -10.8125 C 10.023438 -11.582031 8.644531 -11.96875 7.3125 -11.96875 C 6.46875 -11.96875 5.851562 -11.84375 5.46875 -11.59375 C 5.082031 -11.34375 4.890625 -11.015625 4.890625 -10.609375 C 4.890625 -10.210938 5.117188 -9.914062 5.578125 -9.71875 C 6.035156 -9.519531 6.769531 -9.3125 7.78125 -9.09375 C 8.914062 -8.851562 9.851562 -8.59375 10.59375 -8.3125 C 11.34375 -8.039062 11.992188 -7.601562 12.546875 -7 C 13.097656 -6.394531 13.375 -5.570312 13.375 -4.53125 C 13.375 -3.632812 13.125 -2.820312 12.625 -2.09375 C 12.125 -1.363281 11.375 -0.78125 10.375 -0.34375 C 9.382812 0.0820312 8.175781 0.296875 6.75 0.296875 Z M 6.75 0.296875 "/></g></g></g><g fill="#ef8121" fill-opacity="0.4"><g transform="translate(14.93355, 21.764971)"><g><path d="M 15.71875 -14.953125 L 15.71875 0 L 11.484375 0 L 11.484375 -5.828125 L 5.71875 -5.828125 L 5.71875 0 L 1.5 0 L 1.5 -14.953125 L 5.71875 -14.953125 L 5.71875 -9.328125 L 11.484375 -9.328125 L 11.484375 -14.953125 Z M 15.71875 -14.953125 "/></g></g></g><g fill="#ef8121" fill-opacity="0.4"><g transform="translate(32.141863, 21.764971)"><g><path d="M 9.03125 0.296875 C 7.457031 0.296875 6.039062 -0.0351562 4.78125 -0.703125 C 3.519531 -1.367188 2.523438 -2.289062 1.796875 -3.46875 C 1.078125 -4.65625 0.71875 -5.988281 0.71875 -7.46875 C 0.71875 -8.957031 1.078125 -10.289062 1.796875 -11.46875 C 2.523438 -12.65625 3.519531 -13.582031 4.78125 -14.25 C 6.039062 -14.914062 7.457031 -15.25 9.03125 -15.25 C 10.613281 -15.25 12.035156 -14.914062 13.296875 -14.25 C 14.554688 -13.582031 15.546875 -12.65625 16.265625 -11.46875 C 16.984375 -10.289062 17.34375 -8.957031 17.34375 -7.46875 C 17.34375 -5.988281 16.984375 -4.65625 16.265625 -3.46875 C 15.546875 -2.289062 14.554688 -1.367188 13.296875 -0.703125 C 12.035156 -0.0351562 10.613281 0.296875 9.03125 0.296875 Z M 9.03125 -3.203125 C 9.789062 -3.203125 10.472656 -3.378906 11.078125 -3.734375 C 11.691406 -4.085938 12.175781 -4.585938 12.53125 -5.234375 C 12.894531 -5.890625 13.078125 -6.632812 13.078125 -7.46875 C 13.078125 -8.3125 12.894531 -9.054688 12.53125 -9.703125 C 12.175781 -10.359375 11.691406 -10.863281 11.078125 -11.21875 C 10.472656 -11.570312 9.789062 -11.75 9.03125 -11.75 C 8.28125 -11.75 7.597656 -11.570312 6.984375 -11.21875 C 6.367188 -10.863281 5.882812 -10.359375 5.53125 -9.703125 C 5.175781 -9.054688 5 -8.3125 5 -7.46875 C 5 -6.632812 5.175781 -5.890625 5.53125 -5.234375 C 5.882812 -4.585938 6.367188 -4.085938 6.984375 -3.734375 C 7.597656 -3.378906 8.28125 -3.203125 9.03125 -3.203125 Z M 9.03125 -3.203125 "/></g></g></g><g fill="#ef8121" fill-opacity="0.4"><g transform="translate(50.204186, 21.764971)"><g><path d="M 8.328125 -14.953125 C 9.679688 -14.953125 10.851562 -14.726562 11.84375 -14.28125 C 12.84375 -13.832031 13.613281 -13.191406 14.15625 -12.359375 C 14.695312 -11.523438 14.96875 -10.546875 14.96875 -9.421875 C 14.96875 -8.296875 14.695312 -7.316406 14.15625 -6.484375 C 13.613281 -5.660156 12.84375 -5.023438 11.84375 -4.578125 C 10.851562 -4.128906 9.679688 -3.90625 8.328125 -3.90625 L 5.71875 -3.90625 L 5.71875 0 L 1.5 0 L 1.5 -14.953125 Z M 8.078125 -7.234375 C 8.941406 -7.234375 9.59375 -7.421875 10.03125 -7.796875 C 10.476562 -8.179688 10.703125 -8.722656 10.703125 -9.421875 C 10.703125 -10.117188 10.476562 -10.660156 10.03125 -11.046875 C 9.59375 -11.429688 8.941406 -11.625 8.078125 -11.625 L 5.71875 -11.625 L 5.71875 -7.234375 Z M 8.078125 -7.234375 "/></g></g></g><g fill="#660066" fill-opacity="1"><g transform="translate(1.119929, 21.764971)"><g><path d="M 6.75 0.296875 C 5.539062 0.296875 4.363281 0.148438 3.21875 -0.140625 C 2.082031 -0.441406 1.160156 -0.84375 0.453125 -1.34375 L 1.84375 -4.46875 C 2.507812 -4.019531 3.28125 -3.660156 4.15625 -3.390625 C 5.039062 -3.117188 5.910156 -2.984375 6.765625 -2.984375 C 8.390625 -2.984375 9.203125 -3.390625 9.203125 -4.203125 C 9.203125 -4.628906 8.96875 -4.945312 8.5 -5.15625 C 8.039062 -5.363281 7.300781 -5.582031 6.28125 -5.8125 C 5.15625 -6.050781 4.210938 -6.304688 3.453125 -6.578125 C 2.703125 -6.859375 2.054688 -7.304688 1.515625 -7.921875 C 0.972656 -8.535156 0.703125 -9.363281 0.703125 -10.40625 C 0.703125 -11.3125 0.953125 -12.128906 1.453125 -12.859375 C 1.953125 -13.597656 2.695312 -14.179688 3.6875 -14.609375 C 4.675781 -15.035156 5.890625 -15.25 7.328125 -15.25 C 8.304688 -15.25 9.269531 -15.140625 10.21875 -14.921875 C 11.175781 -14.703125 12.019531 -14.378906 12.75 -13.953125 L 11.453125 -10.8125 C 10.023438 -11.582031 8.644531 -11.96875 7.3125 -11.96875 C 6.46875 -11.96875 5.851562 -11.84375 5.46875 -11.59375 C 5.082031 -11.34375 4.890625 -11.015625 4.890625 -10.609375 C 4.890625 -10.210938 5.117188 -9.914062 5.578125 -9.71875 C 6.035156 -9.519531 6.769531 -9.3125 7.78125 -9.09375 C 8.914062 -8.851562 9.851562 -8.59375 10.59375 -8.3125 C 11.34375 -8.039062 11.992188 -7.601562 12.546875 -7 C 13.097656 -6.394531 13.375 -5.570312 13.375 -4.53125 C 13.375 -3.632812 13.125 -2.820312 12.625 -2.09375 C 12.125 -1.363281 11.375 -0.78125 10.375 -0.34375 C 9.382812 0.0820312 8.175781 0.296875 6.75 0.296875 Z M 6.75 0.296875 "/></g></g></g><g fill="#660066" fill-opacity="1"><g transform="translate(14.93355, 21.764971)"><g><path d="M 15.71875 -14.953125 L 15.71875 0 L 11.484375 0 L 11.484375 -5.828125 L 5.71875 -5.828125 L 5.71875 0 L 1.5 0 L 1.5 -14.953125 L 5.71875 -14.953125 L 5.71875 -9.328125 L 11.484375 -9.328125 L 11.484375 -14.953125 Z M 15.71875 -14.953125 "/></g></g></g><g fill="#660066" fill-opacity="1"><g transform="translate(32.141863, 21.764971)"><g><path d="M 9.03125 0.296875 C 7.457031 0.296875 6.039062 -0.0351562 4.78125 -0.703125 C 3.519531 -1.367188 2.523438 -2.289062 1.796875 -3.46875 C 1.078125 -4.65625 0.71875 -5.988281 0.71875 -7.46875 C 0.71875 -8.957031 1.078125 -10.289062 1.796875 -11.46875 C 2.523438 -12.65625 3.519531 -13.582031 4.78125 -14.25 C 6.039062 -14.914062 7.457031 -15.25 9.03125 -15.25 C 10.613281 -15.25 12.035156 -14.914062 13.296875 -14.25 C 14.554688 -13.582031 15.546875 -12.65625 16.265625 -11.46875 C 16.984375 -10.289062 17.34375 -8.957031 17.34375 -7.46875 C 17.34375 -5.988281 16.984375 -4.65625 16.265625 -3.46875 C 15.546875 -2.289062 14.554688 -1.367188 13.296875 -0.703125 C 12.035156 -0.0351562 10.613281 0.296875 9.03125 0.296875 Z M 9.03125 -3.203125 C 9.789062 -3.203125 10.472656 -3.378906 11.078125 -3.734375 C 11.691406 -4.085938 12.175781 -4.585938 12.53125 -5.234375 C 12.894531 -5.890625 13.078125 -6.632812 13.078125 -7.46875 C 13.078125 -8.3125 12.894531 -9.054688 12.53125 -9.703125 C 12.175781 -10.359375 11.691406 -10.863281 11.078125 -11.21875 C 10.472656 -11.570312 9.789062 -11.75 9.03125 -11.75 C 8.28125 -11.75 7.597656 -11.570312 6.984375 -11.21875 C 6.367188 -10.863281 5.882812 -10.359375 5.53125 -9.703125 C 5.175781 -9.054688 5 -8.3125 5 -7.46875 C 5 -6.632812 5.175781 -5.890625 5.53125 -5.234375 C 5.882812 -4.585938 6.367188 -4.085938 6.984375 -3.734375 C 7.597656 -3.378906 8.28125 -3.203125 9.03125 -3.203125 Z M 9.03125 -3.203125 "/></g></g></g><g fill="#660066" fill-opacity="1"><g transform="translate(50.204186, 21.764971)"><g><path d="M 8.328125 -14.953125 C 9.679688 -14.953125 10.851562 -14.726562 11.84375 -14.28125 C 12.84375 -13.832031 13.613281 -13.191406 14.15625 -12.359375 C 14.695312 -11.523438 14.96875 -10.546875 14.96875 -9.421875 C 14.96875 -8.296875 14.695312 -7.316406 14.15625 -6.484375 C 13.613281 -5.660156 12.84375 -5.023438 11.84375 -4.578125 C 10.851562 -4.128906 9.679688 -3.90625 8.328125 -3.90625 L 5.71875 -3.90625 L 5.71875 0 L 1.5 0 L 1.5 -14.953125 Z M 8.078125 -7.234375 C 8.941406 -7.234375 9.59375 -7.421875 10.03125 -7.796875 C 10.476562 -8.179688 10.703125 -8.722656 10.703125 -9.421875 C 10.703125 -10.117188 10.476562 -10.660156 10.03125 -11.046875 C 9.59375 -11.429688 8.941406 -11.625 8.078125 -11.625 L 5.71875 -11.625 L 5.71875 -7.234375 Z M 8.078125 -7.234375 "/></g></g></g></g></g><g clip-path="url(#dbf8140858)"><g clip-path="url(#e0ad943ab8)"><g clip-path="url(#e711d268d8)"><path fill="#ffffff" d="M 108.441406 62.882812 L 109.800781 62.644531 L 110.3125 65.539062 L 111.671875 65.300781 L 112.152344 67.996094 L 109.4375 68.476562 L 108.960938 65.78125 L 107.601562 66.023438 L 107.117188 63.304688 L 105.757812 63.542969 L 105.515625 62.183594 L 104.15625 62.425781 L 104.398438 63.785156 L 103.039062 64.027344 L 103.28125 65.386719 L 101.921875 65.628906 L 102.164062 66.988281 L 100.796875 67.230469 L 97.269531 47.351562 L 98.628906 47.113281 L 98.871094 48.472656 L 100.230469 48.230469 L 100.472656 49.589844 L 101.832031 49.347656 L 102.070312 50.707031 L 103.429688 50.46875 L 103.671875 51.828125 L 105.03125 51.585938 L 105.273438 52.945312 L 106.632812 52.703125 L 106.875 54.0625 L 108.234375 53.820312 L 108.476562 55.179688 L 109.835938 54.941406 L 110.078125 56.300781 L 111.4375 56.058594 L 111.675781 57.417969 L 113.039062 57.175781 L 113.394531 59.199219 L 107.957031 60.164062 Z M 108.441406 62.882812 " fill-opacity="1" fill-rule="nonzero"/></g></g></g><g clip-path="url(#47a997fc07)"><g clip-path="url(#b969edacb1)"><g clip-path="url(#9bcf1fc68d)"><path fill="#660066" d="M 98.871094 48.472656 L 98.628906 47.109375 L 99.988281 46.871094 L 100.230469 48.230469 Z M 101.832031 49.347656 L 101.589844 47.988281 L 100.230469 48.230469 L 100.472656 49.589844 Z M 103.433594 50.46875 L 103.191406 49.105469 L 101.832031 49.347656 L 102.074219 50.707031 Z M 105.035156 51.585938 L 104.792969 50.226562 L 103.433594 50.46875 L 103.675781 51.828125 Z M 106.636719 52.703125 L 106.394531 51.34375 L 105.035156 51.585938 L 105.277344 52.945312 Z M 108.238281 53.824219 L 107.996094 52.464844 L 106.636719 52.703125 L 106.878906 54.066406 Z M 112.15625 67.996094 L 109.4375 68.476562 L 108.960938 65.78125 L 107.601562 66.023438 L 108.082031 68.734375 L 109.4375 68.496094 L 109.671875 69.835938 L 112.394531 69.355469 L 112.15625 68.019531 L 113.515625 67.777344 L 113.035156 65.058594 L 111.671875 65.300781 L 112.152344 67.996094 Z M 107.117188 63.304688 L 105.757812 63.542969 L 106.242188 66.265625 L 107.601562 66.023438 Z M 104.15625 62.425781 L 104.398438 63.785156 L 105.757812 63.542969 L 105.519531 62.183594 Z M 103.28125 65.386719 L 104.640625 65.144531 L 104.398438 63.785156 L 103.039062 64.027344 Z M 102.160156 66.988281 L 103.523438 66.746094 L 103.28125 65.386719 L 101.921875 65.628906 Z M 111.671875 65.300781 L 111.160156 62.402344 L 109.796875 62.644531 L 110.3125 65.539062 Z M 109.835938 54.941406 L 109.59375 53.582031 L 108.234375 53.824219 L 108.476562 55.183594 Z M 111.4375 56.058594 L 111.195312 54.699219 L 109.835938 54.941406 L 110.074219 56.300781 Z M 113.039062 57.179688 L 112.796875 55.820312 L 111.4375 56.058594 L 111.675781 57.421875 Z M 113.039062 57.179688 L 113.394531 59.199219 L 107.957031 60.164062 L 108.441406 62.886719 L 109.800781 62.644531 L 109.558594 61.285156 L 114.996094 60.320312 L 114.398438 56.9375 Z M 97.269531 47.351562 L 98.628906 47.113281 L 98.386719 45.75 L 97.027344 45.992188 L 96.769531 44.535156 L 95.410156 44.773438 L 99.679688 68.832031 L 102.402344 68.347656 L 102.160156 66.988281 L 100.796875 67.230469 Z M 97.269531 47.351562 " fill-opacity="1" fill-rule="nonzero"/></g></g></g><g transform="matrix(1, 0, 0, 1, 37, 88)"><g clip-path="url(#99fb562c55)"><g fill="#660066" fill-opacity="1"><g transform="translate(1.055416, 28.507806)"><g><path d="M 21.359375 -20.328125 L 21.359375 0 L 16.640625 0 L 7.671875 -10.828125 L 7.671875 0 L 2.03125 0 L 2.03125 -20.328125 L 6.765625 -20.328125 L 15.734375 -9.5 L 15.734375 -20.328125 Z M 21.359375 -20.328125 "/></g></g></g><g fill="#660066" fill-opacity="1"><g transform="translate(22.732287, 28.507806)"><g><path d="M 15.640625 -3.953125 L 7.046875 -3.953125 L 5.453125 0 L -0.40625 0 L 8.5625 -20.328125 L 14.21875 -20.328125 L 23.21875 0 L 17.25 0 Z M 13.96875 -8.1875 L 11.34375 -14.6875 L 8.734375 -8.1875 Z M 13.96875 -8.1875 "/></g></g></g><g fill="#660066" fill-opacity="1"><g transform="translate(43.82878, 28.507806)"><g><path d="M 12.28125 0.40625 C 10.132812 0.40625 8.203125 -0.046875 6.484375 -0.953125 C 4.773438 -1.867188 3.429688 -3.128906 2.453125 -4.734375 C 1.472656 -6.335938 0.984375 -8.144531 0.984375 -10.15625 C 0.984375 -12.175781 1.472656 -13.988281 2.453125 -15.59375 C 3.429688 -17.195312 4.773438 -18.453125 6.484375 -19.359375 C 8.203125 -20.273438 10.132812 -20.734375 12.28125 -20.734375 C 14.425781 -20.734375 16.351562 -20.273438 18.0625 -19.359375 C 19.78125 -18.453125 21.128906 -17.195312 22.109375 -15.59375 C 23.085938 -13.988281 23.578125 -12.175781 23.578125 -10.15625 C 23.578125 -8.144531 23.085938 -6.335938 22.109375 -4.734375 C 21.128906 -3.128906 19.78125 -1.867188 18.0625 -0.953125 C 16.351562 -0.046875 14.425781 0.40625 12.28125 0.40625 Z M 12.28125 -4.359375 C 13.300781 -4.359375 14.226562 -4.597656 15.0625 -5.078125 C 15.894531 -5.566406 16.550781 -6.25 17.03125 -7.125 C 17.519531 -8.007812 17.765625 -9.019531 17.765625 -10.15625 C 17.765625 -11.300781 17.519531 -12.3125 17.03125 -13.1875 C 16.550781 -14.070312 15.894531 -14.753906 15.0625 -15.234375 C 14.226562 -15.722656 13.300781 -15.96875 12.28125 -15.96875 C 11.25 -15.96875 10.316406 -15.722656 9.484375 -15.234375 C 8.660156 -14.753906 8.003906 -14.070312 7.515625 -13.1875 C 7.035156 -12.3125 6.796875 -11.300781 6.796875 -10.15625 C 6.796875 -9.019531 7.035156 -8.007812 7.515625 -7.125 C 8.003906 -6.25 8.660156 -5.566406 9.484375 -5.078125 C 10.316406 -4.597656 11.25 -4.359375 12.28125 -4.359375 Z M 12.28125 -4.359375 "/></g></g></g></g></g><g transform="matrix(1, 0, 0, 1, 38, 119)"><g clip-path="url(#0a3d014d46)"><g fill="#424141" fill-opacity="1"><g transform="translate(1.132814, 6.749081)"><g><path d="M 2.84375 0.046875 C 2.363281 0.046875 1.929688 -0.0546875 1.546875 -0.265625 C 1.171875 -0.472656 0.875 -0.757812 0.65625 -1.125 C 0.4375 -1.5 0.328125 -1.910156 0.328125 -2.359375 C 0.328125 -2.816406 0.4375 -3.226562 0.65625 -3.59375 C 0.875 -3.96875 1.171875 -4.257812 1.546875 -4.46875 C 1.929688 -4.675781 2.363281 -4.78125 2.84375 -4.78125 C 3.3125 -4.78125 3.738281 -4.675781 4.125 -4.46875 C 4.507812 -4.257812 4.804688 -3.96875 5.015625 -3.59375 C 5.234375 -3.226562 5.34375 -2.816406 5.34375 -2.359375 C 5.34375 -1.898438 5.234375 -1.488281 5.015625 -1.125 C 4.804688 -0.757812 4.507812 -0.472656 4.125 -0.265625 C 3.738281 -0.0546875 3.3125 0.046875 2.84375 0.046875 Z M 2.84375 -0.546875 C 3.1875 -0.546875 3.492188 -0.625 3.765625 -0.78125 C 4.046875 -0.9375 4.265625 -1.148438 4.421875 -1.421875 C 4.585938 -1.703125 4.671875 -2.015625 4.671875 -2.359375 C 4.671875 -2.703125 4.585938 -3.007812 4.421875 -3.28125 C 4.265625 -3.5625 4.046875 -3.78125 3.765625 -3.9375 C 3.492188 -4.09375 3.1875 -4.171875 2.84375 -4.171875 C 2.5 -4.171875 2.1875 -4.09375 1.90625 -3.9375 C 1.625 -3.78125 1.398438 -3.5625 1.234375 -3.28125 C 1.078125 -3.007812 1 -2.703125 1 -2.359375 C 1 -2.015625 1.078125 -1.703125 1.234375 -1.421875 C 1.398438 -1.148438 1.625 -0.9375 1.90625 -0.78125 C 2.1875 -0.625 2.5 -0.546875 2.84375 -0.546875 Z M 2.84375 -0.546875 "/></g></g></g><g fill="#424141" fill-opacity="1"><g transform="translate(7.703094, 6.749081)"><g><path d="M 4.765625 -4.71875 L 4.765625 0 L 4.21875 0 L 1.390625 -3.53125 L 1.390625 0 L 0.703125 0 L 0.703125 -4.71875 L 1.265625 -4.71875 L 4.09375 -1.203125 L 4.09375 -4.71875 Z M 4.765625 -4.71875 "/></g></g></g><g fill="#424141" fill-opacity="1"><g transform="translate(14.084508, 6.749081)"><g><path d="M 0.703125 -4.71875 L 1.390625 -4.71875 L 1.390625 -0.59375 L 3.9375 -0.59375 L 3.9375 0 L 0.703125 0 Z M 0.703125 -4.71875 "/></g></g></g><g fill="#424141" fill-opacity="1"><g transform="translate(18.995495, 6.749081)"><g><path d="M 2.515625 -1.640625 L 2.515625 0 L 1.84375 0 L 1.84375 -1.640625 L -0.03125 -4.71875 L 0.6875 -4.71875 L 2.203125 -2.234375 L 3.71875 -4.71875 L 4.390625 -4.71875 Z M 2.515625 -1.640625 "/></g></g></g><g fill="#424141" fill-opacity="1"><g transform="translate(24.263973, 6.749081)"><g/></g></g><g fill="#424141" fill-opacity="1"><g transform="translate(26.982805, 6.749081)"><g><path d="M 1.640625 -4.140625 L 0.03125 -4.140625 L 0.03125 -4.71875 L 3.9375 -4.71875 L 3.9375 -4.140625 L 2.3125 -4.140625 L 2.3125 0 L 1.640625 0 Z M 1.640625 -4.140625 "/></g></g></g><g fill="#424141" fill-opacity="1"><g transform="translate(31.846575, 6.749081)"><g><path d="M 4.765625 -4.71875 L 4.765625 0 L 4.09375 0 L 4.09375 -2.109375 L 1.390625 -2.109375 L 1.390625 0 L 0.703125 0 L 0.703125 -4.71875 L 1.390625 -4.71875 L 1.390625 -2.6875 L 4.09375 -2.6875 L 4.09375 -4.71875 Z M 4.765625 -4.71875 "/></g></g></g><g fill="#424141" fill-opacity="1"><g transform="translate(38.227988, 6.749081)"><g><path d="M 4.140625 -0.59375 L 4.140625 0 L 0.703125 0 L 0.703125 -4.71875 L 4.046875 -4.71875 L 4.046875 -4.140625 L 1.390625 -4.140625 L 1.390625 -2.6875 L 3.75 -2.6875 L 3.75 -2.109375 L 1.390625 -2.109375 L 1.390625 -0.59375 Z M 4.140625 -0.59375 "/></g></g></g><g fill="#424141" fill-opacity="1"><g transform="translate(43.651601, 6.749081)"><g/></g></g><g fill="#424141" fill-opacity="1"><g transform="translate(46.370433, 6.749081)"><g><path d="M 3.890625 -2.453125 C 4.160156 -2.367188 4.375 -2.226562 4.53125 -2.03125 C 4.6875 -1.832031 4.765625 -1.582031 4.765625 -1.28125 C 4.765625 -0.863281 4.609375 -0.546875 4.296875 -0.328125 C 3.992188 -0.109375 3.550781 0 2.96875 0 L 0.703125 0 L 0.703125 -4.71875 L 2.828125 -4.71875 C 3.367188 -4.71875 3.785156 -4.609375 4.078125 -4.390625 C 4.367188 -4.179688 4.515625 -3.882812 4.515625 -3.5 C 4.515625 -3.25 4.457031 -3.035156 4.34375 -2.859375 C 4.226562 -2.679688 4.078125 -2.546875 3.890625 -2.453125 Z M 1.390625 -4.171875 L 1.390625 -2.671875 L 2.765625 -2.671875 C 3.109375 -2.671875 3.375 -2.734375 3.5625 -2.859375 C 3.75 -2.984375 3.84375 -3.171875 3.84375 -3.421875 C 3.84375 -3.671875 3.75 -3.859375 3.5625 -3.984375 C 3.375 -4.109375 3.109375 -4.171875 2.765625 -4.171875 Z M 2.9375 -0.546875 C 3.320312 -0.546875 3.609375 -0.609375 3.796875 -0.734375 C 3.992188 -0.859375 4.09375 -1.054688 4.09375 -1.328125 C 4.09375 -1.859375 3.707031 -2.125 2.9375 -2.125 L 1.390625 -2.125 L 1.390625 -0.546875 Z M 2.9375 -0.546875 "/></g></g></g><g fill="#424141" fill-opacity="1"><g transform="translate(52.38087, 6.749081)"><g><path d="M 4.140625 -0.59375 L 4.140625 0 L 0.703125 0 L 0.703125 -4.71875 L 4.046875 -4.71875 L 4.046875 -4.140625 L 1.390625 -4.140625 L 1.390625 -2.6875 L 3.75 -2.6875 L 3.75 -2.109375 L 1.390625 -2.109375 L 1.390625 -0.59375 Z M 4.140625 -0.59375 "/></g></g></g><g fill="#424141" fill-opacity="1"><g transform="translate(57.804482, 6.749081)"><g><path d="M 2.078125 0.046875 C 1.722656 0.046875 1.378906 -0.00390625 1.046875 -0.109375 C 0.722656 -0.222656 0.46875 -0.367188 0.28125 -0.546875 L 0.53125 -1.0625 C 0.707031 -0.90625 0.9375 -0.773438 1.21875 -0.671875 C 1.5 -0.566406 1.785156 -0.515625 2.078125 -0.515625 C 2.472656 -0.515625 2.765625 -0.582031 2.953125 -0.71875 C 3.148438 -0.851562 3.25 -1.03125 3.25 -1.25 C 3.25 -1.40625 3.195312 -1.535156 3.09375 -1.640625 C 2.988281 -1.742188 2.859375 -1.820312 2.703125 -1.875 C 2.546875 -1.925781 2.328125 -1.988281 2.046875 -2.0625 C 1.691406 -2.144531 1.40625 -2.226562 1.1875 -2.3125 C 0.96875 -2.394531 0.78125 -2.523438 0.625 -2.703125 C 0.46875 -2.890625 0.390625 -3.128906 0.390625 -3.421875 C 0.390625 -3.679688 0.457031 -3.910156 0.59375 -4.109375 C 0.726562 -4.316406 0.925781 -4.476562 1.1875 -4.59375 C 1.457031 -4.71875 1.796875 -4.78125 2.203125 -4.78125 C 2.484375 -4.78125 2.753906 -4.742188 3.015625 -4.671875 C 3.285156 -4.597656 3.519531 -4.492188 3.71875 -4.359375 L 3.5 -3.828125 C 3.300781 -3.953125 3.085938 -4.046875 2.859375 -4.109375 C 2.640625 -4.171875 2.421875 -4.203125 2.203125 -4.203125 C 1.816406 -4.203125 1.523438 -4.128906 1.328125 -3.984375 C 1.140625 -3.847656 1.046875 -3.671875 1.046875 -3.453125 C 1.046875 -3.296875 1.097656 -3.164062 1.203125 -3.0625 C 1.316406 -2.957031 1.453125 -2.875 1.609375 -2.8125 C 1.773438 -2.757812 1.992188 -2.703125 2.265625 -2.640625 C 2.617188 -2.554688 2.90625 -2.472656 3.125 -2.390625 C 3.34375 -2.304688 3.53125 -2.175781 3.6875 -2 C 3.84375 -1.820312 3.921875 -1.585938 3.921875 -1.296875 C 3.921875 -1.046875 3.851562 -0.816406 3.71875 -0.609375 C 3.582031 -0.398438 3.375 -0.238281 3.09375 -0.125 C 2.820312 -0.0078125 2.484375 0.046875 2.078125 0.046875 Z M 2.078125 0.046875 "/></g></g></g><g fill="#424141" fill-opacity="1"><g transform="translate(62.897585, 6.749081)"><g><path d="M 1.640625 -4.140625 L 0.03125 -4.140625 L 0.03125 -4.71875 L 3.9375 -4.71875 L 3.9375 -4.140625 L 2.3125 -4.140625 L 2.3125 0 L 1.640625 0 Z M 1.640625 -4.140625 "/></g></g></g></g></g></svg>